<?xml version="1.0" standalone="no"?>
<!DOCTYPE svg PUBLIC "-//W3C//DTD SVG 20010904//EN"
 "http://www.w3.org/TR/2001/REC-SVG-20010904/DTD/svg10.dtd">
<svg version="1.0" xmlns="http://www.w3.org/2000/svg"
 width="1107.000000pt" height="837.000000pt" viewBox="0 0 1107.000000 837.000000"
 preserveAspectRatio="xMidYMid meet">

<g transform="translate(0.000000,837.000000) scale(0.100000,-0.100000)"
fill="#000000" stroke="none">
<path d="M5091 6226 c-14 -16 -11 -719 2 -733 5 -4 409 -8 898 -8 780 0 891 2
899 15 6 9 10 164 10 371 0 316 -2 358 -16 363 -9 3 -413 6 -899 6 -743 0
-884 -2 -894 -14z m197 -103 c6 -27 16 -90 22 -140 7 -51 16 -93 20 -93 4 0
17 63 30 140 l23 140 68 0 69 0 1 -257 c2 -291 3 -290 52 37 l32 215 71 3 72
3 6 -33 c3 -18 20 -125 36 -238 17 -112 33 -206 35 -209 3 -2 5 104 5 237 l0
242 75 0 c82 0 120 -13 168 -58 l28 -27 -7 43 -7 42 56 0 55 0 11 -77 c6 -43
16 -118 22 -166 7 -48 15 -84 19 -80 4 4 15 67 24 138 9 72 19 142 22 158 l6
28 150 -3 151 -3 0 -35 c-1 -72 0 -70 -48 -70 l-45 0 0 -70 0 -70 44 0 c47 0
56 -11 56 -72 0 -25 -3 -27 -47 -30 l-48 -3 -3 -72 -3 -73 46 0 45 0 0 -50 0
-50 -100 0 -100 0 0 252 c0 138 -2 249 -4 247 -3 -2 -21 -108 -41 -234 -20
-127 -38 -238 -41 -248 -5 -15 -15 -17 -67 -15 l-62 3 -16 95 c-9 52 -22 129
-29 170 l-12 74 -20 -39 c-11 -22 -27 -48 -36 -57 -14 -16 -12 -28 16 -127 18
-61 32 -113 32 -116 0 -3 -23 -5 -52 -3 l-52 3 -25 93 c-14 52 -30 93 -36 93
-6 -1 -11 -42 -13 -96 l-3 -95 -104 0 c-102 0 -105 1 -105 23 0 56 -10 67 -56
67 -39 0 -44 -3 -44 -22 -1 -66 -3 -68 -116 -68 l-103 0 -3 123 -3 122 -18
-100 c-29 -154 -26 -147 -56 -143 -25 3 -27 7 -47 120 -11 65 -23 121 -27 124
-4 4 -7 -50 -7 -119 l0 -127 -50 0 -50 0 0 300 0 300 64 0 64 0 10 -47z m1444
-200 l3 -248 43 -3 42 -3 0 -50 0 -49 -95 0 -95 0 0 300 0 300 50 0 50 0 2
-247z"/>
<path d="M5940 5965 c0 -59 4 -95 10 -95 6 0 22 11 35 25 47 46 24 165 -30
165 -12 0 -15 -18 -15 -95z"/>
<path d="M5666 5918 c-4 -35 -9 -84 -12 -109 -5 -40 -4 -47 14 -51 38 -10 41
2 27 110 -7 57 -15 106 -18 108 -2 3 -7 -24 -11 -58z"/>
<path d="M2544 5604 c4 -253 11 -785 16 -1183 6 -444 14 -729 20 -736 5 -7 8
-14 5 -17 -3 -2 1 -5 7 -6 7 -1 28 -5 47 -8 l33 -7 -6 199 c-3 110 -11 408
-16 664 -5 256 -12 511 -16 568 l-5 102 46 0 47 0 -6 88 c-3 48 -10 202 -16
342 -14 340 -16 368 -31 386 -14 17 -69 47 -108 59 l-24 7 7 -458z"/>
<path d="M1920 5844 c-52 -107 -106 -223 -121 -257 -14 -34 -102 -215 -194
-402 -92 -187 -253 -518 -357 -735 -105 -217 -235 -487 -290 -600 -55 -113
-137 -284 -183 -380 -164 -348 -358 -724 -368 -714 -10 10 -60 -104 -51 -117
5 -8 3 -9 -6 -4 -10 6 -12 4 -7 -9 4 -9 3 -15 -2 -12 -11 7 -33 -43 -25 -57 4
-7 3 -8 -1 -4 -10 8 -45 -57 -45 -82 0 -8 -9 -24 -19 -35 -11 -12 -21 -35 -24
-53 -3 -17 -14 -42 -26 -54 -12 -13 -21 -26 -21 -30 0 -14 87 -19 372 -19 282
0 302 1 399 25 112 27 209 63 209 78 0 13 52 1 125 -27 166 -67 392 -101 595
-90 190 10 335 44 551 129 228 90 306 133 440 242 67 54 149 120 183 147 96
76 196 173 196 190 0 10 -9 16 -22 16 -22 1 -21 2 9 28 33 29 46 50 97 170 52
119 150 337 196 437 38 81 89 202 196 465 19 47 41 90 48 95 8 6 23 42 34 80
208 718 230 783 281 829 l20 19 -20 29 c-12 16 -25 26 -29 21 -8 -8 -90 -201
-417 -988 -96 -231 -240 -575 -320 -765 -80 -190 -150 -357 -155 -372 -12 -33
11 -30 -270 -32 l-206 -1 -6 120 c-3 66 -9 206 -12 310 -3 105 -8 193 -10 196
-7 13 -83 -15 -87 -32 -3 -10 -3 -19 -1 -21 2 -2 6 -121 10 -263 3 -143 7
-271 8 -285 l1 -25 -331 4 c-227 2 -337 0 -350 -8 -14 -8 75 -10 335 -11 341
0 355 1 387 21 31 19 35 19 40 4 9 -22 -8 -38 -86 -80 l-65 -35 288 0 c158 0
287 -3 286 -7 -1 -14 -202 -191 -289 -256 -306 -228 -606 -334 -965 -342
l-160 -3 150 8 c162 8 276 26 412 66 87 25 237 83 231 90 -2 2 -42 -12 -89
-31 -285 -113 -630 -141 -930 -75 -104 22 -266 76 -365 120 -40 18 -62 24 -54
15 11 -13 8 -13 -19 -4 -17 6 -33 15 -36 19 -3 5 21 71 53 147 33 76 65 155
73 176 7 20 18 37 25 37 6 0 58 -22 115 -49 202 -96 351 -131 563 -131 200 0
350 33 537 119 60 27 181 100 168 101 -10 0 -73 -32 -89 -45 -48 -41 -259 -76
-443 -76 -139 1 -314 46 -464 119 -131 63 -127 47 -56 206 24 55 55 127 68
160 12 34 26 69 30 79 7 16 -3 17 -117 17 l-124 0 -99 -222 c-102 -232 -233
-518 -328 -721 -38 -78 -61 -117 -72 -117 -9 0 -13 5 -10 10 4 7 -95 10 -289
10 -163 0 -296 3 -296 8 0 4 127 7 282 7 l283 0 28 55 c15 30 117 255 226 500
109 245 207 462 217 483 l18 37 363 0 363 0 0 -101 0 -100 43 31 c23 16 121
94 217 173 153 124 196 168 167 167 -4 0 -20 11 -35 25 -16 15 -39 25 -57 25
-16 0 -37 5 -45 10 -11 7 -6 10 21 10 20 0 47 8 59 18 l22 18 -84 80 c-45 45
-135 129 -198 188 l-115 107 -9 -91 -8 -90 -204 -1 c-112 0 -219 -1 -236 -1
-18 -1 -32 3 -31 8 2 13 449 1028 467 1061 14 25 15 -7 16 -359 l0 -386 173
-164 c173 -165 272 -256 316 -293 l24 -20 -7 775 c-3 426 -9 947 -13 1158 l-6
382 -236 0 -236 -1 -95 -195z m-132 -2079 c1 -1 -5 -19 -13 -39 -26 -61 -12
-78 15 -18 12 29 30 57 39 62 9 4 49 5 89 2 l71 -7 -12 -25 c-10 -20 -21 -26
-59 -28 -36 -2 -47 -7 -51 -23 -4 -16 0 -19 34 -19 66 0 42 -57 -28 -67 -30
-4 -44 -11 -52 -29 -10 -23 -9 -24 34 -24 47 0 48 -1 39 -37 -6 -22 -12 -23
-90 -23 -91 0 -93 1 -73 58 20 58 3 57 -24 -1 -24 -54 -28 -57 -61 -57 -41 0
-42 2 -21 60 18 52 19 60 1 60 -7 0 -25 -27 -39 -60 -25 -57 -28 -60 -62 -60
-19 0 -35 1 -35 3 0 2 21 57 46 122 25 66 48 128 51 138 4 12 16 17 44 17 22
0 39 -2 39 -4 0 -2 -6 -22 -14 -44 -8 -22 -12 -43 -9 -46 14 -14 25 -3 44 41
11 26 26 51 32 55 10 6 54 1 65 -7z m-208 1 c0 -3 -4 -16 -10 -30 -7 -20 -17
-26 -38 -26 -26 0 -31 -7 -73 -107 -42 -104 -46 -108 -77 -111 -17 -2 -32 -1
-32 2 0 2 17 52 39 110 21 58 36 108 33 111 -3 3 -14 5 -24 5 -21 0 -22 4 -8
31 9 17 22 19 100 19 50 0 90 -2 90 -4z m37 -1462 c-3 -3 -12 -4 -19 -1 -8 3
-5 6 6 6 11 1 17 -2 13 -5z"/>
<path d="M1692 5553 c-18 -38 -67 -131 -108 -209 l-76 -141 -76 -22 c-375
-110 -709 -430 -830 -797 -45 -136 -63 -235 -69 -380 -8 -194 28 -381 111
-567 l25 -58 -101 -205 c-73 -147 -106 -203 -116 -199 -8 3 -12 0 -10 -7 3 -7
15 -15 29 -18 16 -4 20 -8 11 -14 -6 -4 -12 -12 -12 -17 0 -23 19 4 41 58 12
32 96 211 186 398 l164 339 -12 81 c-7 47 -10 138 -7 220 4 138 5 142 60 305
79 237 113 300 244 454 73 86 218 198 296 228 l56 22 73 156 c40 85 101 212
135 281 60 120 62 128 45 143 -10 9 -20 16 -22 16 -3 0 -19 -30 -37 -67z"/>
<path d="M1560 5595 c-41 -8 -119 -26 -173 -40 -54 -14 -103 -22 -109 -19 -7
5 -8 2 -3 -6 6 -10 3 -12 -13 -8 -14 4 -20 2 -16 -4 4 -6 -2 -8 -16 -3 -14 4
-20 3 -16 -3 5 -9 -58 -38 -104 -47 -32 -6 -181 -83 -206 -106 -11 -10 -25
-19 -31 -19 -27 0 -283 -223 -283 -247 0 -6 -13 -23 -30 -36 -16 -14 -30 -28
-30 -31 0 -3 -26 -41 -58 -84 -148 -199 -243 -418 -292 -672 -57 -290 -5 -693
126 -980 37 -79 124 -230 133 -230 4 1 41 75 84 165 l79 164 -32 83 c-77 199
-100 314 -100 499 0 158 13 251 51 382 65 219 163 382 330 548 154 153 313
253 524 327 80 28 80 28 116 92 80 143 156 290 150 289 -3 0 -40 -7 -81 -14z"/>
<path d="M3226 5032 c-8 -181 -24 -506 -31 -627 l-6 -90 66 190 65 190 7 217
6 216 -51 26 -50 25 -6 -147z"/>
<path d="M5591 4884 c0 -159 2 -284 4 -279 3 6 13 53 25 105 15 73 20 130 20
255 0 162 -1 169 -32 194 -17 13 -18 -2 -17 -275z"/>
<path d="M2678 5153 c-4 -8 3 -332 22 -993 7 -223 15 -558 19 -745 3 -187 10
-346 14 -352 6 -10 56 -13 191 -13 135 0 186 3 194 13 5 6 62 138 125 292 63
154 156 379 207 500 51 121 130 310 175 420 172 416 328 792 345 833 l19 42
-237 0 -237 0 -67 -187 c-187 -527 -282 -789 -289 -798 -12 -12 -11 47 6 520
8 220 15 417 15 438 l0 37 -249 0 c-138 0 -251 -3 -253 -7z"/>
<path d="M5038 5153 c-3 -4 -33 -122 -68 -260 l-64 -253 -41 0 c-22 -1 -112
-2 -199 -3 l-159 -2 -38 -112 -38 -113 50 0 c27 0 48 3 47 8 -2 11 21 93 37
130 l15 32 144 0 c80 0 155 4 168 9 19 7 26 21 36 67 6 33 39 155 73 273 38
135 57 217 51 223 -5 5 -12 6 -14 1z"/>
<path d="M5106 5148 c-2 -7 -9 -31 -14 -53 -12 -48 -218 -801 -307 -1120 -35
-126 -87 -313 -114 -415 -27 -102 -68 -254 -92 -338 -23 -84 -38 -156 -35
-160 4 -4 92 -9 195 -10 148 -3 189 -1 198 10 6 7 50 171 98 363 91 364 150
583 159 592 16 16 17 -67 9 -485 -5 -251 -7 -463 -5 -469 6 -18 375 -18 390 0
6 6 38 113 72 237 33 124 87 320 120 435 32 116 92 332 134 480 41 149 113
410 161 580 47 171 90 320 95 333 l10 22 -206 0 c-155 0 -205 -3 -208 -12 -2
-7 -47 -192 -101 -411 -54 -218 -101 -395 -104 -391 -3 3 -8 189 -11 412 l-5
407 -218 3 c-169 2 -218 0 -221 -10z"/>
<path d="M6201 5073 c-12 -49 -53 -198 -91 -333 -38 -135 -98 -355 -135 -490
-95 -351 -228 -824 -293 -1047 l-56 -193 -237 0 c-218 0 -238 1 -242 18 -4 13
-5 11 -6 -5 -1 -23 0 -23 157 -24 349 -3 327 -5 366 33 38 36 69 125 81 233 4
33 24 121 45 195 21 74 127 447 235 828 107 382 203 710 212 730 9 21 15 40
15 44 -1 4 2 18 7 31 10 24 -9 67 -28 67 -5 0 -18 -39 -30 -87z"/>
<path d="M8496 5148 c-3 -7 -32 -121 -66 -253 -33 -132 -64 -243 -68 -247 -4
-4 -95 -9 -201 -10 l-194 -3 -38 -110 c-22 -60 -39 -111 -39 -112 0 -2 13 -3
28 -3 26 0 30 5 51 71 35 109 34 109 214 111 83 1 160 2 169 2 12 -1 23 14 32
40 16 45 133 469 138 500 3 22 -20 34 -26 14z"/>
<path d="M10755 5141 c42 -25 65 -53 81 -98 14 -42 19 -137 6 -129 -5 3 -7 18
-4 35 2 16 -3 54 -12 85 -12 42 -25 62 -53 83 l-36 28 -396 3 c-348 3 -401 1
-439 -14 -78 -29 -97 -53 -126 -161 -143 -533 -178 -683 -173 -727 5 -32 15
-47 54 -80 122 -104 445 -400 450 -413 3 -8 -7 -64 -23 -126 l-29 -112 -122
-3 c-99 -2 -123 0 -123 11 0 7 11 69 25 137 13 68 22 127 19 132 -3 4 -98 8
-212 8 l-207 0 -73 -292 c-79 -320 -85 -371 -49 -414 33 -38 74 -42 481 -43
409 -2 419 0 500 83 27 28 44 41 38 30 -19 -35 -87 -90 -133 -108 -39 -15 -90
-16 -456 -14 -226 2 -406 0 -399 -4 7 -4 199 -8 427 -9 228 -1 403 -5 389 -10
-14 -4 -196 -8 -405 -10 l-380 -4 385 -5 c215 -3 403 -1 425 4 58 13 140 71
196 138 41 50 54 75 84 176 20 64 51 167 70 228 44 140 105 378 105 407 0 57
-47 122 -156 221 -276 249 -312 283 -333 313 -20 28 -22 36 -11 67 12 36 12
36 71 36 52 0 59 2 59 20 0 18 -7 20 -83 20 l-83 0 -17 -70 -18 -69 98 -94
c54 -51 157 -148 230 -216 165 -152 177 -168 175 -235 -1 -28 -6 -64 -11 -81
-6 -21 -7 -4 -3 51 l5 82 -49 52 c-27 29 -142 138 -256 242 -113 104 -209 195
-211 202 -3 7 4 52 16 99 l21 87 128 0 c146 0 138 7 113 -95 -8 -33 -14 -70
-15 -82 l0 -23 184 0 c192 0 216 3 216 26 0 8 5 14 10 14 13 0 13 -4 -2 -51
l-11 -39 -219 0 c-120 0 -218 -4 -218 -8 0 -4 12 -15 28 -24 20 -12 63 -17
167 -21 191 -7 302 1 310 22 10 24 73 232 106 351 55 198 36 299 -70 372 -30
21 -62 38 -70 38 -10 0 -4 -8 14 -19z m82 -273 c-3 -7 -5 -2 -5 12 0 14 2 19
5 13 2 -7 2 -19 0 -25z m-17 -63 c0 -5 -5 -3 -10 5 -5 8 -10 20 -10 25 0 6 5
3 10 -5 5 -8 10 -19 10 -25z m-12 -30 c-3 -3 -9 2 -12 12 -6 14 -5 15 5 6 7
-7 10 -15 7 -18z m-35 -121 c-9 -27 -10 -28 -15 -6 -4 14 -2 20 5 15 6 -4 8 2
4 17 -4 16 -3 20 5 12 7 -7 7 -20 1 -38z m-26 -86 c-3 -8 -6 -5 -6 6 -1 11 2
17 5 13 3 -3 4 -12 1 -19z m-200 -760 c-3 -8 -6 -5 -6 6 -1 11 2 17 5 13 3 -3
4 -12 1 -19z"/>
<path d="M4197 5135 c-22 -7 -50 -24 -64 -36 -53 -50 -71 -104 -277 -804 -46
-159 -123 -421 -170 -581 -121 -411 -126 -429 -115 -493 11 -68 48 -125 99
-151 37 -19 58 -20 383 -20 269 0 347 3 355 13 19 23 120 451 108 460 -6 4
-89 7 -184 6 -95 -1 -176 1 -179 5 -3 3 -1 23 5 43 6 21 29 107 52 191 l42
152 132 0 131 0 34 58 c18 31 78 133 133 225 55 93 97 172 93 175 -3 4 -95 8
-205 10 l-198 4 50 149 51 149 195 2 196 3 8 30 c20 70 108 412 108 418 0 4
-168 7 -372 7 -290 -1 -382 -4 -411 -15z"/>
<path d="M6441 5134 c-65 -17 -114 -46 -140 -82 -20 -28 -49 -125 -181 -597
-45 -159 -116 -416 -160 -570 -175 -621 -178 -635 -159 -708 11 -46 28 -70 73
-105 28 -21 36 -22 247 -22 121 0 219 -3 219 -7 0 -5 -7 -45 -16 -91 -9 -45
-15 -85 -12 -87 2 -3 98 22 212 55 126 37 225 60 255 60 27 0 53 6 58 13 6 6
27 75 48 152 20 77 61 226 90 330 156 551 224 797 230 829 l7 36 -276 0 -277
0 12 -22 c7 -13 25 -38 40 -56 16 -18 29 -40 29 -48 0 -14 -103 -402 -169
-634 l-27 -95 -108 -3 c-99 -2 -107 -1 -103 15 3 10 32 122 66 248 34 127 103
388 154 580 l94 350 111 3 c86 2 112 0 112 -10 0 -7 -11 -54 -25 -103 -14 -50
-25 -93 -25 -97 0 -5 97 -8 215 -8 214 0 215 0 225 23 5 12 35 108 66 212 51
174 55 197 52 272 -4 96 -20 126 -88 161 -44 22 -49 22 -420 21 -295 0 -387
-3 -429 -15z"/>
<path d="M7665 5135 c-53 -18 -108 -81 -133 -152 -20 -56 -51 -161 -222 -748
-45 -154 -110 -377 -145 -495 -118 -397 -128 -439 -122 -505 5 -74 25 -115 74
-152 l36 -28 355 -3 c237 -2 358 1 367 8 7 6 27 72 45 148 18 75 43 176 55
224 13 47 21 89 17 92 -3 3 -88 6 -189 6 -119 0 -183 4 -183 10 0 6 23 92 50
191 28 99 50 182 50 185 0 2 60 4 133 4 l132 0 34 58 c146 247 231 395 231
403 0 5 -84 9 -206 9 -161 0 -205 3 -201 13 2 6 26 74 52 149 l47 138 197 2
196 3 57 220 c31 121 57 223 57 228 1 4 -167 7 -371 7 -294 -1 -382 -4 -413
-15z"/>
<path d="M8580 5127 c-5 -12 -55 -188 -110 -392 -56 -203 -155 -563 -220 -800
-65 -236 -137 -497 -159 -580 -22 -82 -49 -180 -60 -216 -14 -49 -16 -70 -8
-78 7 -7 84 -11 229 -11 254 0 231 -11 267 130 19 71 64 235 188 678 l14 52
73 0 73 0 -103 -407 c-108 -424 -107 -420 -105 -440 2 -19 444 -19 459 0 6 7
20 51 32 97 29 111 166 607 191 689 10 35 19 85 19 111 0 43 -5 53 -45 98 -25
27 -45 52 -45 55 0 3 15 8 33 11 43 8 110 65 143 122 30 52 194 637 194 693 0
53 -18 107 -46 140 -48 57 -66 59 -557 64 l-448 5 -9 -21z m510 -457 c0 -6
-16 -76 -36 -155 l-36 -145 -42 -1 c-48 -1 -120 2 -123 5 -1 1 16 71 39 154
l41 152 79 0 c46 0 78 -4 78 -10z"/>
<path d="M8950 4588 c-6 -24 -20 -73 -31 -109 -24 -84 -24 -89 5 -89 20 0 27
10 50 78 15 42 28 83 28 90 1 6 5 12 10 12 15 0 8 48 -8 54 -33 12 -43 5 -54
-36z"/>
<path d="M9588 5105 c23 -20 49 -56 62 -87 35 -81 25 -153 -68 -484 -61 -216
-86 -291 -110 -326 -30 -44 -84 -97 -118 -116 -16 -9 -15 -13 6 -57 21 -42 22
-57 17 -144 -3 -53 -3 -90 0 -83 3 9 67 13 261 14 l257 3 -232 2 -233 3 6 73
c4 51 2 84 -9 115 -14 41 -14 44 5 55 11 7 39 38 62 69 38 49 43 63 45 110 0
30 33 178 76 343 113 433 120 454 157 493 25 26 27 31 10 21 -13 -8 -33 -29
-44 -48 -20 -31 -22 -33 -30 -15 -12 26 -72 66 -121 81 l-39 11 40 -33z"/>
<path d="M7368 5098 c57 -63 68 -195 27 -333 -14 -49 -42 -144 -61 -210 -19
-66 -38 -126 -42 -133 -6 -11 -56 -13 -242 -13 -129 0 -241 -3 -248 -7 -7 -5
63 -10 155 -11 92 -2 182 -4 198 -4 68 -2 145 3 143 11 -1 4 3 16 9 27 6 11
41 124 78 250 37 127 74 246 82 267 14 34 13 38 -10 75 -24 37 -66 79 -97 98
-8 4 -5 -3 8 -17z"/>
<path d="M1964 4798 c-9 -32 -206 -506 -297 -715 -41 -95 -72 -175 -69 -178 7
-7 213 -4 292 5 l65 7 -57 1 c-32 1 -58 6 -58 11 0 6 26 68 59 139 l58 129 7
294 c4 162 9 302 12 312 3 9 3 17 0 17 -2 0 -8 -10 -12 -22z"/>
<path d="M6676 4613 c-19 -62 -56 -211 -56 -225 0 -13 8 -18 31 -18 16 0 28 4
25 9 -4 5 8 52 25 105 31 96 31 96 64 96 30 0 45 13 45 41 0 5 -29 9 -64 9
-53 0 -66 -3 -70 -17z"/>
<path d="M10700 4472 c0 -7 -10 -13 -22 -13 -19 -1 -20 -2 -4 -6 20 -5 44 12
33 24 -4 3 -7 1 -7 -5z"/>
<path d="M8156 4119 l-149 -249 -128 0 -128 0 -20 -67 c-11 -38 -29 -102 -41
-143 -12 -41 -24 -83 -26 -92 -5 -15 1 -18 36 -18 23 0 39 4 36 9 -9 14 45
236 61 252 5 5 61 9 125 10 l117 2 41 66 c23 36 62 102 87 146 25 44 57 97 71
117 21 32 78 205 70 213 -2 2 -70 -109 -152 -246z"/>
<path d="M4687 4102 c-112 -187 -143 -248 -131 -250 22 -5 49 23 82 82 16 28
60 105 99 171 60 102 113 228 101 241 -2 1 -70 -108 -151 -244z"/>
<path d="M7263 4320 c-21 -64 -151 -534 -158 -570 -15 -76 6 -16 55 155 28 99
67 233 86 298 19 65 34 126 32 135 -3 11 -8 4 -15 -18z"/>
<path d="M6576 4238 c-55 -214 -184 -691 -192 -711 -5 -14 0 -17 28 -17 21 0
35 5 35 13 0 20 93 383 125 492 17 55 34 116 38 135 4 19 13 49 20 67 10 27 9
36 -7 57 -10 14 -21 26 -24 26 -4 0 -14 -28 -23 -62z"/>
<path d="M9570 4156 c28 -32 120 -110 120 -103 0 3 -33 33 -72 68 -40 35 -62
51 -48 35z"/>
<path d="M1970 4146 c0 -2 46 -45 103 -96 l102 -94 -95 97 c-82 84 -110 108
-110 93z"/>
<path d="M9721 4023 c0 -5 14 -19 32 -32 l32 -25 -29 32 c-31 33 -36 37 -35
25z"/>
<path d="M9796 3952 c5 -4 23 -18 39 -32 l30 -25 -29 33 c-17 17 -34 32 -40
32 -6 0 -6 -3 0 -8z"/>
<path d="M4286 3853 c-20 -66 -76 -280 -76 -290 0 -10 35 -13 153 -11 132 2
138 3 45 5 -60 2 -108 7 -108 12 0 4 7 30 15 57 18 57 44 165 52 212 5 32 5
32 -35 32 -30 0 -42 -5 -46 -17z"/>
<path d="M8745 3848 c-2 -7 -9 -33 -15 -58 -6 -25 -31 -115 -55 -200 -24 -85
-62 -222 -85 -305 -23 -82 -51 -178 -62 -212 l-21 -63 -216 -2 -216 -2 220 -5
c121 -4 225 -3 230 1 63 44 71 61 105 203 18 77 41 169 51 205 26 92 109 427
109 440 0 14 -40 13 -45 -2z"/>
<path d="M9916 3850 c4 -8 26 -31 48 -50 22 -19 50 -46 63 -59 13 -13 23 -19
23 -14 0 5 -17 25 -37 43 -21 18 -53 47 -72 64 -19 17 -30 24 -25 16z"/>
<path d="M9895 3808 c-11 -33 -53 -264 -49 -270 3 -4 23 -5 47 -2 46 6 63 14
29 14 -28 0 -28 19 -2 127 14 58 17 90 10 107 -11 30 -29 42 -35 24z"/>
<path d="M9346 3724 c-9 -37 -15 -68 -13 -71 3 -2 12 26 21 63 9 37 15 68 13
71 -3 2 -12 -26 -21 -63z"/>
<path d="M7056 3584 c-21 -69 -36 -128 -33 -130 2 -2 20 53 41 122 20 70 35
128 33 131 -2 2 -21 -53 -41 -123z"/>
<path d="M5140 3638 c0 -7 -37 -151 -82 -320 l-81 -308 -241 -3 -241 -2 249
-3 249 -2 32 33 c26 27 37 51 54 128 12 52 30 119 39 149 l17 55 5 -125 c5
-94 6 -58 8 143 1 147 0 267 -3 267 -3 0 -5 -5 -5 -12z"/>
<path d="M9275 3462 c-27 -97 -68 -239 -92 -314 l-44 -138 -246 0 c-135 0
-244 -2 -241 -5 2 -3 112 -7 244 -9 209 -4 243 -3 271 12 43 22 66 77 57 140
-4 38 6 91 50 266 31 120 55 220 53 222 -2 2 -25 -76 -52 -174z"/>
<path d="M181 3594 c0 -11 3 -14 6 -6 3 7 2 16 -1 19 -3 4 -6 -2 -5 -13z"/>
<path d="M9996 3553 c-6 -14 -5 -15 5 -6 7 7 10 15 7 18 -3 3 -9 -2 -12 -12z"/>
<path d="M4584 3523 c-33 -136 -124 -492 -130 -507 -5 -14 -3 -17 7 -14 7 2
17 18 21 34 4 16 37 134 72 263 36 129 63 238 60 243 -10 16 -24 7 -30 -19z"/>
<path d="M8041 3512 c-6 -20 -15 -62 -22 -92 -13 -62 -93 -364 -105 -395 -8
-19 -7 -19 14 1 17 15 38 79 83 245 78 284 74 265 55 272 -11 5 -18 -3 -25
-31z"/>
<path d="M211 3495 c-1 -19 56 -186 68 -198 6 -6 11 -14 11 -18 0 -4 10 -29
22 -56 12 -26 22 -52 23 -58 2 -15 51 -108 70 -130 10 -12 8 -6 -4 16 -12 20
-21 42 -21 48 0 6 -23 58 -50 115 -28 57 -66 145 -85 197 -19 52 -34 90 -34
84z"/>
<path d="M2465 3437 c-27 -22 -135 -110 -238 -196 -104 -86 -194 -159 -200
-163 -33 -22 32 -28 263 -25 l245 2 -2 175 c-1 96 -5 191 -10 211 l-8 36 -50
-40z"/>
<path d="M2404 3438 l-19 -23 23 19 c21 18 27 26 19 26 -2 0 -12 -10 -23 -22z"/>
<path d="M7011 3424 c0 -11 3 -14 6 -6 3 7 2 16 -1 19 -3 4 -6 -2 -5 -13z"/>
<path d="M2181 3264 c-106 -84 -197 -154 -202 -154 -4 0 -10 30 -12 68 -3 64
-3 64 -5 -19 -1 -63 -6 -90 -17 -99 -8 -7 -15 -17 -15 -23 0 -6 19 7 43 29 23
23 124 109 225 193 156 130 193 163 180 160 -2 0 -90 -70 -197 -155z"/>
<path d="M1581 3355 c5 -4 120 -10 314 -16 39 -1 72 2 75 7 3 5 -80 10 -194
12 -110 1 -197 0 -195 -3z"/>
<path d="M1962 3300 c0 -14 2 -19 5 -12 2 6 2 18 0 25 -3 6 -5 1 -5 -13z"/>
<path d="M6920 3123 l-54 -183 -59 0 c-42 0 -115 -17 -260 -59 -111 -33 -213
-64 -227 -70 -43 -17 -3 -12 62 8 35 11 110 34 168 51 58 17 119 36 135 42 17
5 70 13 118 17 68 6 93 13 108 28 11 11 33 63 48 115 23 79 27 106 22 164 l-6
69 -55 -182z"/>
<path d="M5750 3137 c0 -14 20 -46 46 -72 37 -37 43 -31 7 8 -17 17 -35 41
-41 52 -6 11 -12 16 -12 12z"/>
<path d="M7040 3075 c27 -34 93 -75 119 -75 22 1 20 3 -13 15 -21 7 -57 28
-80 46 -22 18 -34 25 -26 14z"/>
<path d="M3604 3052 c40 -46 81 -52 411 -56 171 -2 333 -1 360 3 28 3 -119 8
-326 11 l-376 5 -44 29 c-34 22 -40 24 -25 8z"/>
<path d="M9053 3033 c9 -2 23 -2 30 0 6 3 -1 5 -18 5 -16 0 -22 -2 -12 -5z"/>
<path d="M9108 3033 c7 -3 16 -2 19 1 4 3 -2 6 -13 5 -11 0 -14 -3 -6 -6z"/>
<path d="M9315 3020 c3 -5 11 -10 16 -10 6 0 7 5 4 10 -3 6 -11 10 -16 10 -6
0 -7 -4 -4 -10z"/>
<path d="M5898 3003 c7 -3 16 -2 19 1 4 3 -2 6 -13 5 -11 0 -14 -3 -6 -6z"/>
<path d="M6228 2993 c6 -2 18 -2 25 0 6 3 1 5 -13 5 -14 0 -19 -2 -12 -5z"/>
<path d="M446 2855 c-9 -26 -7 -32 5 -12 6 10 9 21 6 23 -2 3 -7 -2 -11 -11z"/>
<path d="M2462 2830 c-215 -132 -519 -198 -782 -171 -142 14 -268 47 -398 102
-149 63 -129 71 -199 -88 -55 -124 -59 -140 -46 -155 21 -23 208 -101 318
-132 157 -44 218 -51 445 -51 232 1 314 13 495 71 219 71 480 231 640 393 l69
71 -239 0 -240 -1 -63 -39z"/>
<path d="M415 2789 c-4 -6 -5 -12 -2 -15 2 -3 7 2 10 11 7 17 1 20 -8 4z"/>
<path d="M2584 2514 c-18 -14 -18 -15 4 -4 12 6 22 13 22 15 0 8 -5 6 -26 -11z"/>
<path d="M2535 2490 c-3 -6 1 -7 9 -4 18 7 21 14 7 14 -6 0 -13 -4 -16 -10z"/>
</g>
</svg>
