<?xml version="1.0" encoding="UTF-8"?>
<svg xmlns="http://www.w3.org/2000/svg" xmlns:xlink="http://www.w3.org/1999/xlink" width="140pt" height="106pt" viewBox="0 0 140 106" version="1.1">
<g id="surface1">
<path style=" stroke:none;fill-rule:nonzero;fill:rgb(0%,0%,0%);fill-opacity:1;" d="M 64.375 27.160156 C 64.195312 27.363281 64.234375 36.265625 64.398438 36.445312 C 64.460938 36.496094 69.570312 36.546875 75.753906 36.546875 C 85.617188 36.546875 87.019531 36.519531 87.121094 36.355469 C 87.195312 36.242188 87.246094 34.277344 87.246094 31.65625 C 87.246094 27.652344 87.222656 27.121094 87.042969 27.058594 C 86.929688 27.019531 81.824219 26.980469 75.675781 26.980469 C 66.28125 26.980469 64.5 27.007812 64.375 27.160156 Z M 66.863281 28.464844 C 66.941406 28.804688 67.066406 29.601562 67.140625 30.238281 C 67.230469 30.882812 67.34375 31.414062 67.394531 31.414062 C 67.445312 31.414062 67.609375 30.617188 67.773438 29.640625 L 68.066406 27.867188 L 69.796875 27.867188 L 69.808594 31.125 C 69.835938 34.808594 69.847656 34.796875 70.46875 30.65625 L 70.871094 27.929688 L 71.769531 27.894531 L 72.679688 27.855469 L 72.757812 28.273438 C 72.792969 28.5 73.007812 29.855469 73.210938 31.289062 C 73.425781 32.707031 73.628906 33.898438 73.652344 33.9375 C 73.691406 33.960938 73.71875 32.617188 73.71875 30.933594 L 73.71875 27.867188 L 74.664062 27.867188 C 75.703125 27.867188 76.183594 28.03125 76.789062 28.601562 L 77.144531 28.945312 L 77.054688 28.398438 L 76.96875 27.867188 L 78.371094 27.867188 L 78.507812 28.84375 C 78.585938 29.386719 78.710938 30.339844 78.789062 30.945312 C 78.875 31.554688 78.976562 32.011719 79.027344 31.960938 C 79.078125 31.910156 79.21875 31.109375 79.332031 30.210938 C 79.445312 29.300781 79.570312 28.414062 79.609375 28.210938 L 79.6875 27.855469 L 81.582031 27.894531 L 83.492188 27.929688 L 83.492188 28.375 C 83.480469 29.285156 83.492188 29.261719 82.882812 29.261719 L 82.316406 29.261719 L 82.316406 31.035156 L 82.871094 31.035156 C 83.464844 31.035156 83.582031 31.175781 83.582031 31.945312 C 83.582031 32.261719 83.542969 32.289062 82.984375 32.328125 L 82.378906 32.363281 L 82.339844 33.277344 L 82.304688 34.203125 L 83.453125 34.203125 L 83.453125 35.46875 L 80.925781 35.46875 L 80.925781 32.277344 C 80.925781 30.527344 80.898438 29.121094 80.875 29.148438 C 80.835938 29.171875 80.609375 30.515625 80.355469 32.113281 C 80.101562 33.71875 79.875 35.125 79.835938 35.253906 C 79.773438 35.441406 79.648438 35.46875 78.992188 35.441406 L 78.207031 35.40625 L 78.003906 34.203125 C 77.890625 33.542969 77.726562 32.566406 77.636719 32.046875 L 77.484375 31.109375 L 77.234375 31.605469 C 77.09375 31.882812 76.890625 32.214844 76.777344 32.328125 C 76.601562 32.53125 76.625 32.683594 76.980469 33.9375 C 77.207031 34.707031 77.382812 35.367188 77.382812 35.40625 C 77.382812 35.441406 77.09375 35.46875 76.726562 35.441406 L 76.070312 35.40625 L 75.753906 34.226562 C 75.578125 33.566406 75.375 33.050781 75.296875 33.050781 C 75.222656 33.0625 75.160156 33.582031 75.132812 34.265625 L 75.097656 35.46875 L 73.78125 35.46875 C 72.492188 35.46875 72.453125 35.457031 72.453125 35.175781 C 72.453125 34.46875 72.328125 34.328125 71.746094 34.328125 C 71.25 34.328125 71.1875 34.367188 71.1875 34.605469 C 71.175781 35.441406 71.152344 35.46875 69.722656 35.46875 L 68.417969 35.46875 L 68.382812 33.910156 L 68.34375 32.363281 L 68.117188 33.632812 C 67.75 35.582031 67.789062 35.492188 67.40625 35.441406 C 67.089844 35.40625 67.066406 35.355469 66.8125 33.921875 C 66.675781 33.101562 66.523438 32.390625 66.472656 32.351562 C 66.421875 32.300781 66.382812 32.984375 66.382812 33.859375 L 66.382812 35.46875 L 65.121094 35.46875 L 65.121094 27.867188 L 66.738281 27.867188 Z M 85.121094 30.996094 L 85.160156 34.136719 L 85.703125 34.175781 L 86.234375 34.214844 L 86.234375 35.46875 L 83.832031 35.46875 L 83.832031 27.867188 L 85.097656 27.867188 Z M 85.121094 30.996094 "/>
<path style=" stroke:none;fill-rule:nonzero;fill:rgb(0%,0%,0%);fill-opacity:1;" d="M 75.109375 30.464844 C 75.109375 31.210938 75.160156 31.667969 75.234375 31.667969 C 75.3125 31.667969 75.511719 31.527344 75.675781 31.351562 C 76.273438 30.769531 75.980469 29.261719 75.296875 29.261719 C 75.144531 29.261719 75.109375 29.488281 75.109375 30.464844 Z M 75.109375 30.464844 "/>
<path style=" stroke:none;fill-rule:nonzero;fill:rgb(0%,0%,0%);fill-opacity:1;" d="M 71.644531 31.058594 C 71.59375 31.503906 71.53125 32.125 71.492188 32.441406 C 71.429688 32.949219 71.441406 33.035156 71.667969 33.085938 C 72.148438 33.214844 72.1875 33.0625 72.011719 31.695312 C 71.921875 30.972656 71.820312 30.351562 71.78125 30.324219 C 71.757812 30.289062 71.695312 30.628906 71.644531 31.058594 Z M 71.644531 31.058594 "/>
<path style=" stroke:none;fill-rule:nonzero;fill:rgb(0%,0%,0%);fill-opacity:1;" d="M 32.167969 35.039062 C 32.21875 38.242188 32.308594 44.980469 32.371094 50.023438 C 32.445312 55.648438 32.546875 59.257812 32.621094 59.347656 C 32.6875 59.433594 32.722656 59.523438 32.6875 59.5625 C 32.648438 59.585938 32.699219 59.625 32.773438 59.636719 C 32.863281 59.648438 33.128906 59.699219 33.367188 59.738281 L 33.785156 59.828125 L 33.710938 57.308594 C 33.671875 55.914062 33.570312 52.136719 33.507812 48.894531 C 33.445312 45.652344 33.355469 42.421875 33.304688 41.699219 L 33.242188 40.410156 L 34.417969 40.410156 L 34.34375 39.292969 C 34.304688 38.6875 34.214844 36.734375 34.140625 34.960938 C 33.964844 30.65625 33.9375 30.300781 33.75 30.070312 C 33.570312 29.855469 32.875 29.476562 32.382812 29.324219 L 32.078125 29.234375 Z M 32.167969 35.039062 "/>
<path style=" stroke:none;fill-rule:nonzero;fill:rgb(0%,0%,0%);fill-opacity:1;" d="M 24.277344 31.996094 C 23.621094 33.351562 22.9375 34.824219 22.746094 35.253906 C 22.570312 35.683594 21.457031 37.976562 20.292969 40.34375 C 19.132812 42.714844 17.09375 46.90625 15.78125 49.65625 C 14.453125 52.40625 12.808594 55.824219 12.113281 57.257812 C 11.417969 58.6875 10.382812 60.855469 9.800781 62.070312 C 7.726562 66.476562 5.273438 71.242188 5.144531 71.113281 C 5.019531 70.988281 4.386719 72.433594 4.5 72.597656 C 4.566406 72.699219 4.539062 72.710938 4.425781 72.648438 C 4.300781 72.570312 4.273438 72.597656 4.335938 72.761719 C 4.386719 72.875 4.375 72.949219 4.3125 72.914062 C 4.171875 72.824219 3.894531 73.457031 3.996094 73.636719 C 4.046875 73.722656 4.035156 73.738281 3.984375 73.6875 C 3.855469 73.585938 3.414062 74.40625 3.414062 74.722656 C 3.414062 74.824219 3.300781 75.027344 3.171875 75.167969 C 3.035156 75.320312 2.910156 75.609375 2.871094 75.839844 C 2.832031 76.054688 2.691406 76.371094 2.542969 76.523438 C 2.390625 76.6875 2.277344 76.851562 2.277344 76.902344 C 2.277344 77.082031 3.375 77.144531 6.980469 77.144531 C 10.546875 77.144531 10.796875 77.132812 12.023438 76.828125 C 13.441406 76.484375 14.667969 76.027344 14.667969 75.839844 C 14.667969 75.675781 15.324219 75.828125 16.25 76.179688 C 18.347656 77.03125 21.203125 77.460938 23.773438 77.320312 C 26.175781 77.195312 28.007812 76.765625 30.738281 75.6875 C 33.621094 74.546875 34.609375 74.003906 36.300781 72.621094 C 37.148438 71.9375 38.1875 71.101562 38.617188 70.757812 C 39.832031 69.796875 41.09375 68.566406 41.09375 68.351562 C 41.09375 68.226562 40.980469 68.148438 40.816406 68.148438 C 40.539062 68.136719 40.550781 68.125 40.929688 67.796875 C 41.347656 67.429688 41.511719 67.160156 42.15625 65.640625 C 42.8125 64.132812 44.054688 61.375 44.636719 60.105469 C 45.117188 59.082031 45.761719 57.546875 47.113281 54.214844 C 47.355469 53.621094 47.632812 53.074219 47.71875 53.011719 C 47.820312 52.9375 48.011719 52.480469 48.148438 52 C 50.78125 42.902344 51.058594 42.082031 51.703125 41.5 L 51.957031 41.257812 L 51.703125 40.890625 C 51.550781 40.6875 51.386719 40.5625 51.335938 40.625 C 51.234375 40.726562 50.199219 43.171875 46.0625 53.140625 C 44.851562 56.066406 43.027344 60.421875 42.019531 62.828125 C 41.007812 65.238281 40.121094 67.351562 40.058594 67.542969 C 39.90625 67.960938 40.195312 67.921875 36.644531 67.949219 L 34.039062 67.960938 L 33.964844 66.441406 C 33.925781 65.605469 33.847656 63.832031 33.8125 62.511719 C 33.773438 61.183594 33.710938 60.066406 33.683594 60.03125 C 33.597656 59.867188 32.636719 60.21875 32.585938 60.4375 C 32.546875 60.5625 32.546875 60.675781 32.570312 60.703125 C 32.597656 60.726562 32.648438 62.234375 32.699219 64.035156 C 32.738281 65.84375 32.789062 67.464844 32.800781 67.644531 L 32.8125 67.960938 L 28.628906 67.910156 C 25.757812 67.882812 24.367188 67.910156 24.203125 68.011719 C 24.023438 68.113281 25.148438 68.136719 28.4375 68.148438 C 32.75 68.148438 32.925781 68.136719 33.332031 67.882812 C 33.722656 67.644531 33.773438 67.644531 33.835938 67.832031 C 33.949219 68.113281 33.734375 68.316406 32.75 68.847656 L 31.925781 69.289062 L 35.570312 69.289062 C 37.566406 69.289062 39.199219 69.328125 39.183594 69.378906 C 39.171875 69.554688 36.632812 71.796875 35.53125 72.621094 C 31.660156 75.511719 27.867188 76.851562 23.328125 76.953125 L 21.304688 76.992188 L 23.203125 76.890625 C 25.25 76.789062 26.691406 76.5625 28.414062 76.054688 C 29.511719 75.738281 31.410156 75.003906 31.332031 74.914062 C 31.308594 74.890625 30.800781 75.066406 30.207031 75.308594 C 26.605469 76.738281 22.242188 77.09375 18.449219 76.257812 C 17.132812 75.976562 15.085938 75.292969 13.832031 74.738281 C 13.328125 74.507812 13.050781 74.433594 13.148438 74.546875 C 13.289062 74.710938 13.25 74.710938 12.910156 74.597656 C 12.695312 74.523438 12.492188 74.40625 12.453125 74.355469 C 12.417969 74.292969 12.71875 73.457031 13.125 72.496094 C 13.542969 71.53125 13.945312 70.53125 14.046875 70.265625 C 14.136719 70.011719 14.277344 69.796875 14.363281 69.796875 C 14.441406 69.796875 15.097656 70.074219 15.816406 70.417969 C 18.371094 71.632812 20.257812 72.078125 22.9375 72.078125 C 25.464844 72.078125 27.363281 71.660156 29.726562 70.570312 C 30.484375 70.226562 32.015625 69.304688 31.851562 69.289062 C 31.726562 69.289062 30.929688 69.695312 30.726562 69.859375 C 30.121094 70.378906 27.453125 70.824219 25.125 70.824219 C 23.367188 70.808594 21.152344 70.238281 19.257812 69.316406 C 17.601562 68.515625 17.652344 68.71875 18.550781 66.707031 C 18.851562 66.007812 19.246094 65.097656 19.410156 64.679688 C 19.5625 64.25 19.738281 63.804688 19.789062 63.679688 C 19.878906 63.476562 19.75 63.464844 18.308594 63.464844 L 16.742188 63.464844 L 15.488281 66.273438 C 14.199219 69.214844 12.542969 72.835938 11.34375 75.410156 C 10.863281 76.398438 10.570312 76.890625 10.433594 76.890625 C 10.316406 76.890625 10.265625 76.828125 10.304688 76.765625 C 10.355469 76.675781 9.105469 76.636719 6.652344 76.636719 C 4.589844 76.636719 2.910156 76.597656 2.910156 76.535156 C 2.910156 76.484375 4.515625 76.445312 6.472656 76.445312 L 10.050781 76.445312 L 10.40625 75.75 C 10.597656 75.371094 11.886719 72.519531 13.265625 69.417969 C 14.640625 66.3125 15.882812 63.566406 16.007812 63.296875 L 16.234375 62.828125 L 25.414062 62.828125 L 25.414062 65.375 L 25.960938 64.984375 C 26.25 64.78125 27.488281 63.792969 28.703125 62.792969 C 30.636719 61.222656 31.179688 60.664062 30.816406 60.675781 C 30.765625 60.675781 30.5625 60.535156 30.371094 60.359375 C 30.167969 60.167969 29.878906 60.042969 29.652344 60.042969 C 29.449219 60.042969 29.183594 59.980469 29.082031 59.917969 C 28.941406 59.828125 29.007812 59.789062 29.347656 59.789062 C 29.601562 59.789062 29.941406 59.6875 30.09375 59.5625 L 30.371094 59.332031 L 29.308594 58.320312 C 28.742188 57.75 27.601562 56.6875 26.804688 55.9375 L 25.351562 54.582031 L 25.238281 55.734375 L 25.136719 56.875 L 22.558594 56.890625 C 21.140625 56.890625 19.789062 56.902344 19.574219 56.902344 C 19.347656 56.914062 19.167969 56.863281 19.183594 56.800781 C 19.207031 56.636719 24.859375 43.777344 25.085938 43.359375 C 25.265625 43.042969 25.277344 43.449219 25.289062 47.90625 L 25.289062 52.796875 L 27.476562 54.875 C 29.664062 56.964844 30.914062 58.117188 31.472656 58.585938 L 31.777344 58.839844 L 31.6875 49.023438 C 31.648438 43.625 31.574219 37.027344 31.523438 34.355469 L 31.445312 29.515625 L 28.460938 29.515625 L 25.480469 29.527344 Z M 22.609375 58.332031 C 22.621094 58.34375 22.546875 58.574219 22.445312 58.828125 C 22.117188 59.601562 22.292969 59.816406 22.632812 59.054688 C 22.785156 58.6875 23.011719 58.332031 23.125 58.269531 C 23.242188 58.21875 23.746094 58.207031 24.253906 58.246094 L 25.148438 58.332031 L 25 58.648438 C 24.871094 58.902344 24.734375 58.980469 24.253906 59.003906 C 23.796875 59.03125 23.65625 59.09375 23.605469 59.296875 C 23.558594 59.5 23.605469 59.535156 24.039062 59.535156 C 24.871094 59.535156 24.566406 60.257812 23.683594 60.386719 C 23.304688 60.4375 23.125 60.523438 23.027344 60.753906 C 22.898438 61.042969 22.910156 61.054688 23.457031 61.054688 C 24.050781 61.054688 24.0625 61.070312 23.949219 61.523438 C 23.871094 61.804688 23.796875 61.816406 22.8125 61.816406 C 21.660156 61.816406 21.632812 61.804688 21.886719 61.082031 C 22.140625 60.347656 21.925781 60.359375 21.585938 61.09375 C 21.28125 61.777344 21.230469 61.816406 20.8125 61.816406 C 20.292969 61.816406 20.28125 61.792969 20.546875 61.054688 C 20.773438 60.398438 20.789062 60.296875 20.558594 60.296875 C 20.472656 60.296875 20.242188 60.636719 20.066406 61.054688 C 19.75 61.777344 19.710938 61.816406 19.28125 61.816406 C 19.042969 61.816406 18.839844 61.804688 18.839844 61.777344 C 18.839844 61.753906 19.105469 61.054688 19.421875 60.234375 C 19.738281 59.398438 20.027344 58.613281 20.066406 58.484375 C 20.117188 58.332031 20.269531 58.269531 20.625 58.269531 C 20.902344 58.269531 21.117188 58.296875 21.117188 58.320312 C 21.117188 58.34375 21.039062 58.597656 20.9375 58.878906 C 20.839844 59.15625 20.789062 59.421875 20.824219 59.460938 C 21.003906 59.636719 21.140625 59.5 21.382812 58.941406 C 21.519531 58.613281 21.710938 58.296875 21.785156 58.246094 C 21.914062 58.167969 22.46875 58.230469 22.609375 58.332031 Z M 19.976562 58.320312 C 19.976562 58.359375 19.929688 58.523438 19.851562 58.699219 C 19.761719 58.953125 19.636719 59.03125 19.371094 59.03125 C 19.042969 59.03125 18.980469 59.117188 18.449219 60.386719 C 17.917969 61.703125 17.867188 61.753906 17.476562 61.792969 C 17.257812 61.816406 17.070312 61.804688 17.070312 61.765625 C 17.070312 61.742188 17.285156 61.105469 17.5625 60.371094 C 17.828125 59.636719 18.019531 59.003906 17.980469 58.964844 C 17.941406 58.929688 17.804688 58.902344 17.675781 58.902344 C 17.410156 58.902344 17.398438 58.851562 17.574219 58.511719 C 17.691406 58.296875 17.855469 58.269531 18.839844 58.269531 C 19.472656 58.269531 19.976562 58.296875 19.976562 58.320312 Z M 20.445312 76.839844 C 20.410156 76.878906 20.292969 76.890625 20.207031 76.851562 C 20.105469 76.816406 20.144531 76.777344 20.28125 76.777344 C 20.421875 76.765625 20.496094 76.800781 20.445312 76.839844 Z M 20.445312 76.839844 "/>
<path style=" stroke:none;fill-rule:nonzero;fill:rgb(0%,0%,0%);fill-opacity:1;" d="M 21.394531 35.683594 C 21.167969 36.164062 20.546875 37.34375 20.027344 38.332031 L 19.066406 40.117188 L 18.105469 40.394531 C 13.367188 41.789062 9.140625 45.84375 7.613281 50.492188 C 7.042969 52.214844 6.816406 53.46875 6.738281 55.304688 C 6.636719 57.761719 7.09375 60.132812 8.144531 62.488281 L 8.460938 63.222656 L 7.183594 65.820312 C 6.257812 67.679688 5.839844 68.390625 5.714844 68.339844 C 5.613281 68.300781 5.5625 68.339844 5.589844 68.429688 C 5.625 68.515625 5.777344 68.617188 5.957031 68.65625 C 6.15625 68.707031 6.207031 68.757812 6.09375 68.835938 C 6.019531 68.886719 5.941406 68.984375 5.941406 69.050781 C 5.941406 69.339844 6.183594 69 6.460938 68.316406 C 6.613281 67.910156 7.675781 65.640625 8.8125 63.273438 L 10.886719 58.980469 L 10.734375 57.953125 C 10.648438 57.359375 10.609375 56.203125 10.648438 55.167969 C 10.695312 53.417969 10.710938 53.367188 11.40625 51.300781 C 12.402344 48.300781 12.835938 47.503906 14.492188 45.550781 C 15.414062 44.460938 17.246094 43.042969 18.234375 42.664062 L 18.941406 42.386719 L 19.863281 40.410156 C 20.371094 39.332031 21.140625 37.722656 21.570312 36.847656 C 22.332031 35.328125 22.355469 35.226562 22.140625 35.039062 C 22.015625 34.921875 21.886719 34.835938 21.863281 34.835938 C 21.824219 34.835938 21.621094 35.214844 21.394531 35.683594 Z M 21.394531 35.683594 "/>
<path style=" stroke:none;fill-rule:nonzero;fill:rgb(0%,0%,0%);fill-opacity:1;" d="M 19.726562 35.152344 C 19.207031 35.253906 18.222656 35.480469 17.539062 35.660156 C 16.855469 35.835938 16.234375 35.9375 16.160156 35.898438 C 16.070312 35.835938 16.058594 35.875 16.121094 35.976562 C 16.199219 36.101562 16.160156 36.128906 15.957031 36.078125 C 15.78125 36.027344 15.703125 36.050781 15.753906 36.128906 C 15.804688 36.203125 15.730469 36.226562 15.554688 36.164062 C 15.375 36.113281 15.300781 36.128906 15.351562 36.203125 C 15.414062 36.316406 14.617188 36.683594 14.035156 36.796875 C 13.628906 36.875 11.746094 37.851562 11.429688 38.140625 C 11.292969 38.269531 11.113281 38.382812 11.039062 38.382812 C 10.695312 38.382812 7.460938 41.207031 7.460938 41.511719 C 7.460938 41.585938 7.296875 41.800781 7.082031 41.964844 C 6.878906 42.144531 6.703125 42.320312 6.703125 42.359375 C 6.703125 42.398438 6.371094 42.878906 5.96875 43.421875 C 4.097656 45.945312 2.894531 48.71875 2.277344 51.9375 C 1.554688 55.609375 2.210938 60.714844 3.871094 64.351562 C 4.335938 65.351562 5.4375 67.261719 5.550781 67.261719 C 5.601562 67.25 6.070312 66.3125 6.613281 65.171875 L 7.613281 63.097656 L 7.207031 62.042969 C 6.234375 59.523438 5.941406 58.066406 5.941406 55.722656 C 5.941406 53.722656 6.105469 52.542969 6.585938 50.882812 C 7.410156 48.109375 8.648438 46.046875 10.761719 43.941406 C 12.707031 42.003906 14.71875 40.738281 17.386719 39.800781 C 18.398438 39.445312 18.398438 39.445312 18.851562 38.636719 C 19.863281 36.824219 20.824219 34.960938 20.75 34.972656 C 20.710938 34.972656 20.242188 35.0625 19.726562 35.152344 Z M 19.726562 35.152344 "/>
<path style=" stroke:none;fill-rule:nonzero;fill:rgb(0%,0%,0%);fill-opacity:1;" d="M 40.792969 42.285156 C 40.691406 44.578125 40.488281 48.691406 40.398438 50.226562 L 40.324219 51.367188 L 41.15625 48.960938 L 41.980469 46.550781 L 42.066406 43.804688 L 42.144531 41.066406 L 41.5 40.738281 L 40.867188 40.421875 Z M 40.792969 42.285156 "/>
<path style=" stroke:none;fill-rule:nonzero;fill:rgb(0%,0%,0%);fill-opacity:1;" d="M 70.695312 44.160156 C 70.695312 46.171875 70.722656 47.753906 70.746094 47.691406 C 70.785156 47.617188 70.910156 47.019531 71.0625 46.363281 C 71.25 45.4375 71.316406 44.714844 71.316406 43.132812 C 71.316406 41.078125 71.300781 40.992188 70.910156 40.675781 C 70.695312 40.511719 70.683594 40.699219 70.695312 44.160156 Z M 70.695312 44.160156 "/>
<path style=" stroke:none;fill-rule:nonzero;fill:rgb(0%,0%,0%);fill-opacity:1;" d="M 33.863281 40.75 C 33.8125 40.851562 33.898438 44.957031 34.140625 53.328125 C 34.230469 56.152344 34.328125 60.398438 34.378906 62.765625 C 34.417969 65.136719 34.507812 67.148438 34.558594 67.226562 C 34.632812 67.351562 35.265625 67.390625 36.972656 67.390625 C 38.679688 67.390625 39.324219 67.351562 39.425781 67.226562 C 39.488281 67.148438 40.210938 65.476562 41.007812 63.527344 C 41.804688 61.574219 42.980469 58.726562 43.625 57.191406 C 44.269531 55.660156 45.265625 53.265625 45.835938 51.871094 C 48.011719 46.601562 49.984375 41.839844 50.199219 41.320312 L 50.4375 40.789062 L 44.445312 40.789062 L 43.597656 43.15625 C 41.234375 49.832031 40.03125 53.152344 39.945312 53.265625 C 39.792969 53.417969 39.804688 52.671875 40.019531 46.679688 C 40.121094 43.890625 40.210938 41.398438 40.210938 41.128906 L 40.210938 40.660156 L 37.0625 40.660156 C 35.316406 40.660156 33.886719 40.699219 33.863281 40.75 Z M 33.863281 40.75 "/>
<path style=" stroke:none;fill-rule:nonzero;fill:rgb(0%,0%,0%);fill-opacity:1;" d="M 63.703125 40.75 C 63.664062 40.800781 63.285156 42.296875 62.84375 44.042969 L 62.035156 47.25 L 61.515625 47.25 C 61.238281 47.261719 60.097656 47.273438 59 47.285156 L 56.988281 47.3125 L 56.507812 48.730469 L 56.027344 50.164062 L 56.660156 50.164062 C 57 50.164062 57.265625 50.125 57.253906 50.0625 C 57.230469 49.921875 57.519531 48.882812 57.722656 48.414062 L 57.910156 48.007812 L 59.734375 48.007812 C 60.746094 48.007812 61.691406 47.957031 61.855469 47.894531 C 62.097656 47.804688 62.1875 47.628906 62.3125 47.046875 C 62.386719 46.628906 62.804688 45.082031 63.234375 43.589844 C 63.714844 41.878906 63.957031 40.839844 63.878906 40.761719 C 63.816406 40.699219 63.726562 40.6875 63.703125 40.75 Z M 63.703125 40.75 "/>
<path style=" stroke:none;fill-rule:nonzero;fill:rgb(0%,0%,0%);fill-opacity:1;" d="M 64.5625 40.8125 C 64.539062 40.902344 64.449219 41.207031 64.386719 41.484375 C 64.234375 42.09375 61.628906 51.632812 60.503906 55.671875 C 60.0625 57.269531 59.402344 59.636719 59.0625 60.929688 C 58.722656 62.222656 58.203125 64.148438 57.898438 65.210938 C 57.609375 66.273438 57.417969 67.1875 57.457031 67.238281 C 57.507812 67.289062 58.621094 67.351562 59.921875 67.363281 C 61.792969 67.402344 62.3125 67.378906 62.425781 67.238281 C 62.5 67.148438 63.058594 65.070312 63.664062 62.640625 C 64.816406 58.027344 65.5625 55.253906 65.675781 55.140625 C 65.878906 54.9375 65.890625 55.988281 65.789062 61.285156 C 65.726562 64.464844 65.699219 67.148438 65.726562 67.226562 C 65.800781 67.453125 70.46875 67.453125 70.65625 67.226562 C 70.734375 67.148438 71.136719 65.792969 71.566406 64.222656 C 71.984375 62.652344 72.667969 60.167969 73.085938 58.714844 C 73.488281 57.242188 74.25 54.507812 74.78125 52.632812 C 75.296875 50.746094 76.207031 47.4375 76.816406 45.285156 C 77.410156 43.121094 77.953125 41.230469 78.015625 41.066406 L 78.144531 40.789062 L 75.539062 40.789062 C 73.578125 40.789062 72.945312 40.828125 72.910156 40.941406 C 72.882812 41.03125 72.3125 43.371094 71.632812 46.148438 C 70.949219 48.910156 70.355469 51.152344 70.316406 51.101562 C 70.277344 51.0625 70.214844 48.707031 70.175781 45.882812 L 70.113281 40.726562 L 67.355469 40.6875 C 65.21875 40.660156 64.601562 40.6875 64.5625 40.8125 Z M 64.5625 40.8125 "/>
<path style=" stroke:none;fill-rule:nonzero;fill:rgb(0%,0%,0%);fill-opacity:1;" d="M 78.410156 41.765625 C 78.257812 42.386719 77.738281 44.273438 77.257812 45.980469 C 76.777344 47.691406 76.019531 50.480469 75.550781 52.1875 C 74.351562 56.636719 72.667969 62.628906 71.847656 65.453125 L 71.136719 67.898438 L 68.140625 67.898438 C 65.382812 67.898438 65.132812 67.882812 65.082031 67.667969 C 65.03125 67.503906 65.019531 67.53125 65.003906 67.730469 C 64.992188 68.023438 65.003906 68.023438 66.992188 68.035156 C 71.402344 68.074219 71.125 68.097656 71.617188 67.617188 C 72.097656 67.160156 72.492188 66.035156 72.644531 64.667969 C 72.691406 64.25 72.945312 63.132812 73.210938 62.195312 C 73.476562 61.257812 74.816406 56.535156 76.183594 51.707031 C 77.535156 46.867188 78.75 42.714844 78.863281 42.460938 C 78.976562 42.195312 79.054688 41.953125 79.054688 41.902344 C 79.039062 41.851562 79.078125 41.675781 79.140625 41.511719 C 79.269531 41.207031 79.027344 40.660156 78.789062 40.660156 C 78.726562 40.660156 78.558594 41.15625 78.410156 41.765625 Z M 78.410156 41.765625 "/>
<path style=" stroke:none;fill-rule:nonzero;fill:rgb(0%,0%,0%);fill-opacity:1;" d="M 107.429688 40.8125 C 107.390625 40.902344 107.023438 42.347656 106.59375 44.019531 C 106.175781 45.691406 105.785156 47.097656 105.734375 47.148438 C 105.683594 47.199219 104.53125 47.261719 103.191406 47.273438 L 100.738281 47.3125 L 100.257812 48.707031 C 99.980469 49.464844 99.765625 50.113281 99.765625 50.125 C 99.765625 50.148438 99.929688 50.164062 100.121094 50.164062 C 100.449219 50.164062 100.5 50.097656 100.765625 49.261719 C 101.207031 47.882812 101.195312 47.882812 103.46875 47.855469 C 104.519531 47.84375 105.492188 47.832031 105.605469 47.832031 C 105.757812 47.84375 105.898438 47.65625 106.011719 47.324219 C 106.214844 46.753906 107.691406 41.382812 107.757812 40.992188 C 107.792969 40.710938 107.503906 40.5625 107.429688 40.8125 Z M 107.429688 40.8125 "/>
<path style=" stroke:none;fill-rule:nonzero;fill:rgb(0%,0%,0%);fill-opacity:1;" d="M 135.992188 40.902344 C 136.523438 41.21875 136.8125 41.574219 137.015625 42.144531 C 137.191406 42.675781 137.257812 43.878906 137.089844 43.777344 C 137.027344 43.738281 137.003906 43.550781 137.042969 43.335938 C 137.066406 43.132812 137.003906 42.652344 136.890625 42.257812 C 136.738281 41.726562 136.574219 41.472656 136.21875 41.207031 L 135.765625 40.851562 L 130.757812 40.8125 C 126.355469 40.777344 125.6875 40.800781 125.207031 40.992188 C 124.21875 41.359375 123.980469 41.664062 123.613281 43.03125 C 121.804688 49.78125 121.363281 51.683594 121.425781 52.238281 C 121.488281 52.644531 121.613281 52.835938 122.109375 53.253906 C 123.652344 54.570312 127.734375 58.320312 127.796875 58.484375 C 127.835938 58.585938 127.710938 59.296875 127.507812 60.082031 L 127.140625 61.5 L 125.597656 61.539062 C 124.347656 61.5625 124.042969 61.539062 124.042969 61.398438 C 124.042969 61.308594 124.183594 60.523438 124.359375 59.664062 C 124.523438 58.800781 124.636719 58.054688 124.597656 57.992188 C 124.5625 57.941406 123.359375 57.890625 121.917969 57.890625 L 119.300781 57.890625 L 118.378906 61.589844 C 117.378906 65.640625 117.304688 66.289062 117.757812 66.832031 C 118.175781 67.3125 118.695312 67.363281 123.839844 67.378906 C 129.011719 67.402344 129.136719 67.378906 130.164062 66.324219 C 130.503906 65.972656 130.71875 65.808594 130.644531 65.945312 C 130.402344 66.390625 129.542969 67.085938 128.960938 67.3125 C 128.46875 67.503906 127.824219 67.515625 123.195312 67.492188 C 120.335938 67.464844 118.0625 67.492188 118.148438 67.542969 C 118.238281 67.59375 120.667969 67.644531 123.550781 67.65625 C 126.433594 67.667969 128.644531 67.71875 128.46875 67.78125 C 128.292969 67.832031 125.988281 67.882812 123.347656 67.910156 L 118.542969 67.960938 L 123.410156 68.023438 C 126.128906 68.0625 128.507812 68.035156 128.785156 67.972656 C 129.519531 67.808594 130.554688 67.074219 131.261719 66.226562 C 131.78125 65.589844 131.945312 65.273438 132.324219 63.996094 C 132.578125 63.183594 132.96875 61.878906 133.210938 61.105469 C 133.765625 59.332031 134.539062 56.320312 134.539062 55.953125 C 134.539062 55.230469 133.941406 54.40625 132.566406 53.152344 C 129.074219 49.996094 128.621094 49.566406 128.355469 49.1875 C 128.101562 48.832031 128.078125 48.730469 128.214844 48.339844 C 128.367188 47.882812 128.367188 47.882812 129.113281 47.882812 C 129.769531 47.882812 129.859375 47.855469 129.859375 47.628906 C 129.859375 47.402344 129.769531 47.375 128.808594 47.375 L 127.761719 47.375 L 127.546875 48.261719 L 127.316406 49.136719 L 128.558594 50.328125 C 129.238281 50.972656 130.542969 52.203125 131.464844 53.0625 C 133.550781 54.988281 133.703125 55.191406 133.679688 56.039062 C 133.664062 56.394531 133.601562 56.851562 133.539062 57.066406 C 133.460938 57.332031 133.449219 57.117188 133.5 56.421875 L 133.5625 55.382812 L 132.945312 54.722656 C 132.601562 54.355469 131.148438 52.976562 129.707031 51.65625 C 128.277344 50.339844 127.066406 49.1875 127.039062 49.097656 C 127 49.011719 127.089844 48.441406 127.242188 47.84375 L 127.507812 46.742188 L 129.125 46.742188 C 130.972656 46.742188 130.871094 46.652344 130.554688 47.945312 C 130.453125 48.363281 130.378906 48.832031 130.363281 48.984375 L 130.363281 49.277344 L 132.691406 49.277344 C 135.121094 49.277344 135.421875 49.238281 135.421875 48.945312 C 135.421875 48.84375 135.484375 48.769531 135.550781 48.769531 C 135.714844 48.769531 135.714844 48.820312 135.523438 49.414062 L 135.382812 49.910156 L 132.617188 49.910156 C 131.097656 49.910156 129.859375 49.960938 129.859375 50.011719 C 129.859375 50.0625 130.011719 50.199219 130.214844 50.316406 C 130.464844 50.464844 131.007812 50.53125 132.324219 50.582031 C 134.738281 50.667969 136.144531 50.566406 136.246094 50.300781 C 136.371094 49.996094 137.167969 47.363281 137.585938 45.855469 C 138.28125 43.347656 138.039062 42.066406 136.699219 41.144531 C 136.320312 40.878906 135.914062 40.660156 135.816406 40.660156 C 135.6875 40.660156 135.765625 40.761719 135.992188 40.902344 Z M 137.027344 44.359375 C 136.992188 44.449219 136.964844 44.386719 136.964844 44.207031 C 136.964844 44.03125 136.992188 43.96875 137.027344 44.042969 C 137.054688 44.132812 137.054688 44.285156 137.027344 44.359375 Z M 136.8125 45.160156 C 136.8125 45.222656 136.75 45.195312 136.6875 45.09375 C 136.625 44.996094 136.5625 44.84375 136.5625 44.777344 C 136.5625 44.703125 136.625 44.742188 136.6875 44.84375 C 136.75 44.945312 136.8125 45.082031 136.8125 45.160156 Z M 136.660156 45.539062 C 136.625 45.578125 136.546875 45.511719 136.511719 45.386719 C 136.433594 45.210938 136.445312 45.195312 136.574219 45.3125 C 136.660156 45.398438 136.699219 45.5 136.660156 45.539062 Z M 136.21875 47.070312 C 136.105469 47.414062 136.09375 47.425781 136.03125 47.148438 C 135.980469 46.96875 136.003906 46.894531 136.09375 46.957031 C 136.167969 47.007812 136.195312 46.933594 136.144531 46.742188 C 136.09375 46.539062 136.105469 46.488281 136.207031 46.589844 C 136.296875 46.679688 136.296875 46.84375 136.21875 47.070312 Z M 135.890625 48.160156 C 135.851562 48.261719 135.816406 48.222656 135.816406 48.085938 C 135.800781 47.945312 135.839844 47.871094 135.878906 47.921875 C 135.914062 47.957031 135.929688 48.074219 135.890625 48.160156 Z M 133.363281 57.789062 C 133.324219 57.890625 133.285156 57.851562 133.285156 57.710938 C 133.273438 57.574219 133.3125 57.496094 133.347656 57.546875 C 133.386719 57.585938 133.398438 57.699219 133.363281 57.789062 Z M 133.363281 57.789062 "/>
<path style=" stroke:none;fill-rule:nonzero;fill:rgb(0%,0%,0%);fill-opacity:1;" d="M 53.070312 40.980469 C 52.789062 41.066406 52.4375 41.28125 52.257812 41.433594 C 51.589844 42.066406 51.363281 42.753906 48.757812 51.621094 C 48.175781 53.632812 47.203125 56.953125 46.609375 58.980469 C 45.078125 64.183594 45.015625 64.414062 45.152344 65.222656 C 45.292969 66.085938 45.761719 66.808594 46.40625 67.136719 C 46.875 67.378906 47.140625 67.390625 51.25 67.390625 C 54.648438 67.390625 55.636719 67.351562 55.738281 67.226562 C 55.976562 66.933594 57.253906 61.511719 57.101562 61.398438 C 57.027344 61.347656 55.976562 61.308594 54.777344 61.324219 C 53.574219 61.335938 52.550781 61.308594 52.511719 61.257812 C 52.476562 61.222656 52.5 60.96875 52.574219 60.714844 C 52.652344 60.449219 52.941406 59.359375 53.234375 58.296875 L 53.765625 56.371094 L 57.089844 56.371094 L 57.519531 55.636719 C 57.746094 55.242188 58.507812 53.949219 59.203125 52.785156 C 59.898438 51.605469 60.429688 50.605469 60.378906 50.566406 C 60.339844 50.515625 59.175781 50.464844 57.785156 50.441406 L 55.28125 50.390625 L 55.914062 48.503906 L 56.558594 46.617188 L 59.023438 46.589844 L 61.503906 46.550781 L 61.605469 46.171875 C 61.855469 45.285156 62.96875 40.953125 62.96875 40.878906 C 62.96875 40.828125 60.84375 40.789062 58.265625 40.789062 C 54.597656 40.800781 53.4375 40.839844 53.070312 40.980469 Z M 53.070312 40.980469 "/>
<path style=" stroke:none;fill-rule:nonzero;fill:rgb(0%,0%,0%);fill-opacity:1;" d="M 81.441406 40.992188 C 80.621094 41.207031 80 41.574219 79.671875 42.03125 C 79.421875 42.386719 79.054688 43.613281 77.382812 49.59375 C 76.816406 51.605469 75.917969 54.863281 75.359375 56.8125 C 73.148438 64.679688 73.109375 64.855469 73.351562 65.78125 C 73.488281 66.363281 73.703125 66.667969 74.273438 67.113281 C 74.628906 67.378906 74.730469 67.390625 77.398438 67.390625 C 78.925781 67.390625 80.167969 67.429688 80.167969 67.480469 C 80.167969 67.542969 80.078125 68.046875 79.964844 68.632812 C 79.851562 69.203125 79.773438 69.707031 79.8125 69.734375 C 79.835938 69.773438 81.050781 69.453125 82.492188 69.035156 C 84.085938 68.566406 85.335938 68.277344 85.71875 68.277344 C 86.058594 68.277344 86.386719 68.199219 86.449219 68.113281 C 86.527344 68.035156 86.792969 67.160156 87.058594 66.1875 C 87.308594 65.210938 87.828125 63.324219 88.195312 62.007812 C 90.167969 55.027344 91.027344 51.910156 91.105469 51.503906 L 91.191406 51.050781 L 84.199219 51.050781 L 84.351562 51.328125 C 84.441406 51.492188 84.667969 51.808594 84.855469 52.039062 C 85.058594 52.265625 85.222656 52.542969 85.222656 52.644531 C 85.222656 52.824219 83.921875 57.738281 83.085938 60.675781 L 82.746094 61.878906 L 81.378906 61.917969 C 80.128906 61.941406 80.027344 61.929688 80.078125 61.726562 C 80.117188 61.601562 80.480469 60.183594 80.914062 58.585938 C 81.34375 56.976562 82.214844 53.671875 82.859375 51.238281 L 84.046875 46.804688 L 85.453125 46.769531 C 86.539062 46.742188 86.867188 46.769531 86.867188 46.894531 C 86.867188 46.984375 86.730469 47.578125 86.550781 48.199219 C 86.375 48.832031 86.234375 49.378906 86.234375 49.429688 C 86.234375 49.492188 87.460938 49.527344 88.953125 49.527344 C 91.660156 49.527344 91.671875 49.527344 91.800781 49.238281 C 91.863281 49.085938 92.242188 47.871094 92.632812 46.550781 C 93.277344 44.347656 93.328125 44.058594 93.292969 43.105469 C 93.242188 41.890625 93.039062 41.511719 92.179688 41.066406 C 91.621094 40.789062 91.558594 40.789062 86.867188 40.800781 C 83.136719 40.800781 81.972656 40.839844 81.441406 40.992188 Z M 81.441406 40.992188 "/>
<path style=" stroke:none;fill-rule:nonzero;fill:rgb(0%,0%,0%);fill-opacity:1;" d="M 96.921875 40.980469 C 96.25 41.207031 95.554688 42.003906 95.238281 42.902344 C 94.984375 43.613281 94.59375 44.945312 92.429688 52.378906 C 91.863281 54.328125 91.039062 57.15625 90.597656 58.648438 C 89.105469 63.679688 88.980469 64.210938 89.054688 65.046875 C 89.117188 65.984375 89.371094 66.503906 89.992188 66.972656 L 90.445312 67.328125 L 94.933594 67.363281 C 97.933594 67.390625 99.460938 67.351562 99.574219 67.261719 C 99.664062 67.1875 99.917969 66.351562 100.144531 65.386719 C 100.371094 64.4375 100.6875 63.160156 100.839844 62.550781 C 101.003906 61.957031 101.105469 61.421875 101.054688 61.386719 C 101.015625 61.347656 99.941406 61.308594 98.664062 61.308594 C 97.160156 61.308594 96.351562 61.257812 96.351562 61.183594 C 96.351562 61.105469 96.640625 60.019531 96.984375 58.761719 C 97.335938 57.507812 97.617188 56.457031 97.617188 56.421875 C 97.617188 56.394531 98.375 56.371094 99.296875 56.371094 L 100.964844 56.371094 L 101.394531 55.636719 C 103.242188 52.507812 104.316406 50.632812 104.316406 50.53125 C 104.316406 50.464844 103.253906 50.414062 101.710938 50.414062 C 99.675781 50.414062 99.121094 50.378906 99.171875 50.25 C 99.195312 50.175781 99.5 49.3125 99.828125 48.363281 L 100.421875 46.617188 L 102.914062 46.589844 L 105.390625 46.550781 L 106.113281 43.765625 C 106.503906 42.234375 106.832031 40.941406 106.832031 40.878906 C 106.847656 40.828125 104.722656 40.789062 102.140625 40.789062 C 98.425781 40.800781 97.3125 40.839844 96.921875 40.980469 Z M 96.921875 40.980469 "/>
<path style=" stroke:none;fill-rule:nonzero;fill:rgb(0%,0%,0%);fill-opacity:1;" d="M 108.488281 41.078125 C 108.425781 41.230469 107.792969 43.460938 107.097656 46.046875 C 106.390625 48.617188 105.140625 53.175781 104.316406 56.179688 C 103.496094 59.167969 102.585938 62.476562 102.308594 63.527344 C 102.027344 64.566406 101.6875 65.808594 101.546875 66.261719 C 101.371094 66.882812 101.347656 67.148438 101.445312 67.25 C 101.535156 67.339844 102.507812 67.390625 104.34375 67.390625 C 107.554688 67.390625 107.261719 67.53125 107.71875 65.742188 C 107.957031 64.84375 108.527344 62.765625 110.097656 57.15625 L 110.273438 56.496094 L 112.117188 56.496094 L 110.816406 61.652344 C 109.449219 67.023438 109.464844 66.972656 109.488281 67.226562 C 109.515625 67.464844 115.101562 67.464844 115.292969 67.226562 C 115.367188 67.136719 115.546875 66.578125 115.695312 65.996094 C 116.0625 64.589844 117.796875 58.308594 118.113281 57.269531 C 118.238281 56.824219 118.351562 56.191406 118.351562 55.863281 C 118.351562 55.316406 118.289062 55.191406 117.785156 54.621094 C 117.46875 54.28125 117.214844 53.960938 117.214844 53.925781 C 117.214844 53.886719 117.402344 53.824219 117.632812 53.785156 C 118.175781 53.683594 119.023438 52.960938 119.441406 52.238281 C 119.820312 51.582031 121.894531 44.171875 121.894531 43.460938 C 121.894531 42.789062 121.664062 42.105469 121.3125 41.6875 C 120.703125 40.964844 120.476562 40.941406 114.269531 40.878906 L 108.605469 40.8125 Z M 114.9375 46.867188 C 114.9375 46.945312 114.734375 47.832031 114.484375 48.832031 L 114.027344 50.667969 L 113.496094 50.683594 C 112.890625 50.695312 111.980469 50.65625 111.941406 50.617188 C 111.929688 50.605469 112.144531 49.71875 112.433594 48.667969 L 112.953125 46.742188 L 113.953125 46.742188 C 114.535156 46.742188 114.9375 46.792969 114.9375 46.867188 Z M 114.9375 46.867188 "/>
<path style=" stroke:none;fill-rule:nonzero;fill:rgb(0%,0%,0%);fill-opacity:1;" d="M 113.167969 47.90625 C 113.09375 48.210938 112.914062 48.832031 112.777344 49.289062 C 112.472656 50.351562 112.472656 50.414062 112.839844 50.414062 C 113.09375 50.414062 113.179688 50.289062 113.472656 49.429688 C 113.660156 48.894531 113.824219 48.375 113.824219 48.289062 C 113.839844 48.210938 113.890625 48.136719 113.953125 48.136719 C 114.140625 48.136719 114.054688 47.527344 113.851562 47.453125 C 113.433594 47.300781 113.308594 47.386719 113.167969 47.90625 Z M 113.167969 47.90625 "/>
<path style=" stroke:none;fill-rule:nonzero;fill:rgb(0%,0%,0%);fill-opacity:1;" d="M 121.234375 41.359375 C 121.527344 41.613281 121.855469 42.066406 122.019531 42.460938 C 122.460938 43.488281 122.335938 44.398438 121.160156 48.589844 C 120.386719 51.328125 120.070312 52.277344 119.769531 52.722656 C 119.390625 53.277344 118.707031 53.949219 118.277344 54.191406 C 118.074219 54.304688 118.085938 54.355469 118.351562 54.914062 C 118.617188 55.445312 118.628906 55.636719 118.566406 56.738281 C 118.53125 57.410156 118.53125 57.875 118.566406 57.789062 C 118.605469 57.675781 119.414062 57.625 121.867188 57.609375 L 125.117188 57.574219 L 122.183594 57.546875 L 119.238281 57.507812 L 119.3125 56.585938 C 119.363281 55.9375 119.339844 55.519531 119.199219 55.128906 C 119.023438 54.609375 119.023438 54.570312 119.261719 54.429688 C 119.402344 54.34375 119.757812 53.949219 120.046875 53.558594 C 120.527344 52.9375 120.589844 52.757812 120.617188 52.164062 C 120.617188 51.785156 121.035156 49.910156 121.578125 47.820312 C 123.003906 42.335938 123.09375 42.066406 123.5625 41.574219 C 123.878906 41.246094 123.902344 41.179688 123.6875 41.308594 C 123.523438 41.410156 123.269531 41.675781 123.132812 41.917969 C 122.878906 42.308594 122.855469 42.335938 122.753906 42.105469 C 122.601562 41.777344 121.84375 41.269531 121.222656 41.078125 L 120.730469 40.941406 Z M 121.234375 41.359375 "/>
<path style=" stroke:none;fill-rule:nonzero;fill:rgb(0%,0%,0%);fill-opacity:1;" d="M 93.164062 41.449219 C 93.886719 42.246094 94.023438 43.917969 93.507812 45.664062 C 93.328125 46.285156 92.976562 47.488281 92.734375 48.324219 C 92.496094 49.160156 92.253906 49.921875 92.203125 50.011719 C 92.128906 50.148438 91.496094 50.175781 89.144531 50.175781 C 87.511719 50.175781 86.097656 50.214844 86.007812 50.265625 C 85.917969 50.328125 86.804688 50.390625 87.96875 50.402344 C 89.132812 50.429688 90.269531 50.453125 90.472656 50.453125 C 91.332031 50.480469 92.304688 50.414062 92.28125 50.316406 C 92.265625 50.265625 92.316406 50.113281 92.394531 49.972656 C 92.46875 49.832031 92.910156 48.402344 93.378906 46.804688 C 93.847656 45.195312 94.316406 43.691406 94.417969 43.421875 C 94.59375 42.992188 94.582031 42.941406 94.289062 42.472656 C 93.988281 42.003906 93.457031 41.472656 93.0625 41.230469 C 92.960938 41.179688 93 41.269531 93.164062 41.449219 Z M 93.164062 41.449219 "/>
<path style=" stroke:none;fill-rule:nonzero;fill:rgb(0%,0%,0%);fill-opacity:1;" d="M 24.832031 45.246094 C 24.71875 45.652344 22.230469 51.65625 21.078125 54.304688 C 20.558594 55.507812 20.167969 56.523438 20.207031 56.558594 C 20.292969 56.648438 22.898438 56.609375 23.898438 56.496094 L 24.71875 56.40625 L 24 56.394531 C 23.59375 56.382812 23.265625 56.320312 23.265625 56.253906 C 23.265625 56.179688 23.59375 55.394531 24.011719 54.496094 L 24.746094 52.859375 L 24.832031 49.136719 C 24.882812 47.085938 24.949219 45.3125 24.984375 45.183594 C 25.023438 45.070312 25.023438 44.96875 24.984375 44.96875 C 24.960938 44.96875 24.882812 45.09375 24.832031 45.246094 Z M 24.832031 45.246094 "/>
<path style=" stroke:none;fill-rule:nonzero;fill:rgb(0%,0%,0%);fill-opacity:1;" d="M 84.414062 47.589844 C 84.175781 48.375 83.707031 50.265625 83.707031 50.441406 C 83.707031 50.605469 83.808594 50.667969 84.097656 50.667969 C 84.300781 50.667969 84.453125 50.617188 84.414062 50.554688 C 84.363281 50.492188 84.515625 49.898438 84.730469 49.226562 C 85.121094 48.007812 85.121094 48.007812 85.539062 48.007812 C 85.917969 48.007812 86.109375 47.84375 86.109375 47.488281 C 86.109375 47.425781 85.742188 47.375 85.300781 47.375 C 84.628906 47.375 84.464844 47.414062 84.414062 47.589844 Z M 84.414062 47.589844 "/>
<path style=" stroke:none;fill-rule:nonzero;fill:rgb(0%,0%,0%);fill-opacity:1;" d="M 135.296875 49.378906 C 135.296875 49.464844 135.167969 49.542969 135.019531 49.542969 C 134.777344 49.554688 134.765625 49.566406 134.96875 49.617188 C 135.21875 49.679688 135.523438 49.464844 135.382812 49.3125 C 135.335938 49.277344 135.296875 49.300781 135.296875 49.378906 Z M 135.296875 49.378906 "/>
<path style=" stroke:none;fill-rule:nonzero;fill:rgb(0%,0%,0%);fill-opacity:1;" d="M 103.128906 53.847656 L 101.246094 57.003906 L 98.007812 57.003906 L 97.753906 57.851562 C 97.617188 58.332031 97.386719 59.144531 97.234375 59.664062 C 97.085938 60.183594 96.933594 60.714844 96.90625 60.828125 C 96.84375 61.019531 96.921875 61.054688 97.363281 61.054688 C 97.652344 61.054688 97.855469 61.003906 97.816406 60.941406 C 97.703125 60.765625 98.386719 57.953125 98.589844 57.75 C 98.652344 57.6875 99.359375 57.636719 100.167969 57.625 L 101.648438 57.597656 L 102.167969 56.761719 C 102.457031 56.304688 102.953125 55.46875 103.269531 54.914062 C 103.582031 54.355469 103.988281 53.683594 104.164062 53.429688 C 104.429688 53.023438 105.152344 50.832031 105.050781 50.734375 C 105.023438 50.707031 104.164062 52.113281 103.128906 53.847656 Z M 103.128906 53.847656 "/>
<path style=" stroke:none;fill-rule:nonzero;fill:rgb(0%,0%,0%);fill-opacity:1;" d="M 59.265625 54.0625 C 57.847656 56.433594 57.457031 57.207031 57.609375 57.230469 C 57.886719 57.292969 58.226562 56.941406 58.644531 56.191406 C 58.847656 55.835938 59.402344 54.863281 59.898438 54.027344 C 60.65625 52.734375 61.324219 51.136719 61.175781 50.972656 C 61.148438 50.960938 60.289062 52.339844 59.265625 54.0625 Z M 59.265625 54.0625 "/>
<path style=" stroke:none;fill-rule:nonzero;fill:rgb(0%,0%,0%);fill-opacity:1;" d="M 91.835938 51.300781 C 91.570312 52.113281 89.929688 58.066406 89.839844 58.523438 C 89.648438 59.484375 89.914062 58.726562 90.535156 56.558594 C 90.890625 55.304688 91.382812 53.609375 91.621094 52.785156 C 91.863281 51.960938 92.050781 51.1875 92.027344 51.074219 C 91.988281 50.933594 91.925781 51.023438 91.835938 51.300781 Z M 91.835938 51.300781 "/>
<path style=" stroke:none;fill-rule:nonzero;fill:rgb(0%,0%,0%);fill-opacity:1;" d="M 83.148438 52.339844 C 82.453125 55.050781 80.824219 61.09375 80.722656 61.347656 C 80.660156 61.523438 80.722656 61.5625 81.078125 61.5625 C 81.34375 61.5625 81.519531 61.5 81.519531 61.398438 C 81.519531 61.144531 82.695312 56.546875 83.101562 55.167969 C 83.316406 54.46875 83.53125 53.695312 83.582031 53.457031 C 83.628906 53.214844 83.746094 52.835938 83.832031 52.605469 C 83.960938 52.265625 83.945312 52.152344 83.746094 51.886719 C 83.617188 51.707031 83.480469 51.554688 83.441406 51.554688 C 83.390625 51.554688 83.265625 51.910156 83.148438 52.339844 Z M 83.148438 52.339844 "/>
<path style=" stroke:none;fill-rule:nonzero;fill:rgb(0%,0%,0%);fill-opacity:1;" d="M 121.007812 53.378906 C 121.363281 53.785156 122.523438 54.773438 122.523438 54.683594 C 122.523438 54.648438 122.109375 54.265625 121.613281 53.824219 C 121.109375 53.378906 120.832031 53.175781 121.007812 53.378906 Z M 121.007812 53.378906 "/>
<path style=" stroke:none;fill-rule:nonzero;fill:rgb(0%,0%,0%);fill-opacity:1;" d="M 24.910156 53.507812 C 24.910156 53.53125 25.492188 54.078125 26.210938 54.722656 L 27.5 55.914062 L 26.300781 54.683594 C 25.265625 53.621094 24.910156 53.316406 24.910156 53.507812 Z M 24.910156 53.507812 "/>
<path style=" stroke:none;fill-rule:nonzero;fill:rgb(0%,0%,0%);fill-opacity:1;" d="M 122.917969 55.066406 C 122.917969 55.128906 123.09375 55.304688 123.320312 55.46875 L 123.726562 55.785156 L 123.359375 55.382812 C 122.96875 54.964844 122.90625 54.914062 122.917969 55.066406 Z M 122.917969 55.066406 "/>
<path style=" stroke:none;fill-rule:nonzero;fill:rgb(0%,0%,0%);fill-opacity:1;" d="M 123.867188 55.964844 C 123.929688 56.015625 124.15625 56.191406 124.359375 56.371094 L 124.738281 56.6875 L 124.371094 56.269531 C 124.15625 56.054688 123.941406 55.863281 123.867188 55.863281 C 123.789062 55.863281 123.789062 55.902344 123.867188 55.964844 Z M 123.867188 55.964844 "/>
<path style=" stroke:none;fill-rule:nonzero;fill:rgb(0%,0%,0%);fill-opacity:1;" d="M 54.195312 57.21875 C 53.941406 58.054688 53.234375 60.765625 53.234375 60.890625 C 53.234375 61.019531 53.675781 61.054688 55.167969 61.03125 C 56.835938 61.003906 56.914062 60.992188 55.738281 60.96875 C 54.976562 60.941406 54.371094 60.878906 54.371094 60.816406 C 54.371094 60.765625 54.460938 60.4375 54.5625 60.09375 C 54.789062 59.371094 55.117188 58.003906 55.21875 57.410156 C 55.28125 57.003906 55.28125 57.003906 54.777344 57.003906 C 54.398438 57.003906 54.246094 57.066406 54.195312 57.21875 Z M 54.195312 57.21875 "/>
<path style=" stroke:none;fill-rule:nonzero;fill:rgb(0%,0%,0%);fill-opacity:1;" d="M 110.578125 57.28125 C 110.550781 57.371094 110.460938 57.699219 110.386719 58.015625 C 110.3125 58.332031 109.996094 59.472656 109.691406 60.550781 C 109.386719 61.625 108.90625 63.363281 108.617188 64.414062 C 108.324219 65.453125 107.972656 66.667969 107.832031 67.097656 L 107.566406 67.898438 L 104.835938 67.921875 L 102.105469 67.949219 L 104.886719 68.011719 C 106.417969 68.0625 107.730469 68.046875 107.792969 68 C 108.589844 67.441406 108.691406 67.226562 109.121094 65.425781 C 109.351562 64.453125 109.640625 63.285156 109.765625 62.828125 C 110.097656 61.664062 111.144531 57.421875 111.144531 57.257812 C 111.144531 57.078125 110.640625 57.089844 110.578125 57.28125 Z M 110.578125 57.28125 "/>
<path style=" stroke:none;fill-rule:nonzero;fill:rgb(0%,0%,0%);fill-opacity:1;" d="M 125.382812 57.257812 C 125.433594 57.359375 125.710938 57.648438 125.988281 57.890625 C 126.269531 58.128906 126.621094 58.472656 126.785156 58.636719 C 126.949219 58.800781 127.078125 58.878906 127.078125 58.8125 C 127.078125 58.75 126.863281 58.496094 126.609375 58.269531 C 126.34375 58.042969 125.9375 57.675781 125.699219 57.457031 C 125.457031 57.242188 125.320312 57.15625 125.382812 57.257812 Z M 125.382812 57.257812 "/>
<path style=" stroke:none;fill-rule:nonzero;fill:rgb(0%,0%,0%);fill-opacity:1;" d="M 125.117188 57.789062 C 124.976562 58.207031 124.445312 61.132812 124.496094 61.207031 C 124.535156 61.257812 124.789062 61.273438 125.09375 61.234375 C 125.671875 61.15625 125.890625 61.054688 125.457031 61.054688 C 125.105469 61.054688 125.105469 60.816406 125.433594 59.449219 C 125.609375 58.714844 125.648438 58.308594 125.558594 58.09375 C 125.421875 57.710938 125.191406 57.558594 125.117188 57.789062 Z M 125.117188 57.789062 "/>
<path style=" stroke:none;fill-rule:nonzero;fill:rgb(0%,0%,0%);fill-opacity:1;" d="M 118.175781 58.851562 C 118.0625 59.320312 117.984375 59.714844 118.011719 59.75 C 118.050781 59.777344 118.164062 59.421875 118.277344 58.953125 C 118.390625 58.484375 118.464844 58.09375 118.441406 58.054688 C 118.402344 58.027344 118.289062 58.382812 118.175781 58.851562 Z M 118.175781 58.851562 "/>
<path style=" stroke:none;fill-rule:nonzero;fill:rgb(0%,0%,0%);fill-opacity:1;" d="M 89.21875 60.625 C 88.953125 61.5 88.765625 62.246094 88.800781 62.273438 C 88.828125 62.296875 89.054688 61.601562 89.320312 60.726562 C 89.574219 59.839844 89.761719 59.105469 89.738281 59.066406 C 89.710938 59.042969 89.472656 59.738281 89.21875 60.625 Z M 89.21875 60.625 "/>
<path style=" stroke:none;fill-rule:nonzero;fill:rgb(0%,0%,0%);fill-opacity:1;" d="M 64.992188 59.941406 C 64.992188 60.03125 64.523438 61.855469 63.957031 63.996094 L 62.933594 67.898438 L 59.882812 67.933594 L 56.835938 67.960938 L 59.984375 68 L 63.132812 68.023438 L 63.539062 67.605469 C 63.867188 67.261719 64.007812 66.960938 64.222656 65.984375 C 64.375 65.324219 64.601562 64.476562 64.714844 64.097656 L 64.929688 63.398438 L 64.992188 64.984375 C 65.054688 66.175781 65.070312 65.71875 65.09375 63.171875 C 65.105469 61.308594 65.09375 59.789062 65.054688 59.789062 C 65.019531 59.789062 64.992188 59.851562 64.992188 59.941406 Z M 64.992188 59.941406 "/>
<path style=" stroke:none;fill-rule:nonzero;fill:rgb(0%,0%,0%);fill-opacity:1;" d="M 117.277344 62.171875 C 116.9375 63.398438 116.417969 65.199219 116.113281 66.148438 L 115.558594 67.898438 L 112.449219 67.898438 C 110.742188 67.898438 109.363281 67.921875 109.398438 67.960938 C 109.425781 68 110.816406 68.046875 112.484375 68.074219 C 115.128906 68.125 115.558594 68.113281 115.914062 67.921875 C 116.457031 67.644531 116.746094 66.945312 116.632812 66.148438 C 116.582031 65.667969 116.707031 64.996094 117.265625 62.777344 C 117.65625 61.257812 117.960938 59.992188 117.933594 59.96875 C 117.910156 59.941406 117.621094 60.929688 117.277344 62.171875 Z M 117.277344 62.171875 "/>
<path style=" stroke:none;fill-rule:nonzero;fill:rgb(0%,0%,0%);fill-opacity:1;" d="M 2.289062 60.5 C 2.289062 60.636719 2.328125 60.675781 2.363281 60.574219 C 2.402344 60.488281 2.390625 60.371094 2.351562 60.335938 C 2.3125 60.285156 2.277344 60.359375 2.289062 60.5 Z M 2.289062 60.5 "/>
<path style=" stroke:none;fill-rule:nonzero;fill:rgb(0%,0%,0%);fill-opacity:1;" d="M 126.394531 61.019531 C 126.320312 61.195312 126.332031 61.207031 126.457031 61.09375 C 126.546875 61.003906 126.585938 60.90625 126.546875 60.867188 C 126.507812 60.828125 126.433594 60.890625 126.394531 61.019531 Z M 126.394531 61.019531 "/>
<path style=" stroke:none;fill-rule:nonzero;fill:rgb(0%,0%,0%);fill-opacity:1;" d="M 57.960938 61.398438 C 57.546875 63.121094 56.394531 67.628906 56.320312 67.820312 C 56.253906 68 56.28125 68.035156 56.40625 68 C 56.496094 67.972656 56.621094 67.769531 56.671875 67.566406 C 56.722656 67.363281 57.140625 65.871094 57.582031 64.234375 C 58.039062 62.601562 58.378906 61.222656 58.339844 61.15625 C 58.214844 60.953125 58.039062 61.070312 57.960938 61.398438 Z M 57.960938 61.398438 "/>
<path style=" stroke:none;fill-rule:nonzero;fill:rgb(0%,0%,0%);fill-opacity:1;" d="M 101.675781 61.539062 C 101.597656 61.792969 101.484375 62.324219 101.394531 62.703125 C 101.230469 63.488281 100.21875 67.3125 100.070312 67.707031 C 99.96875 67.949219 99.980469 67.949219 100.246094 67.695312 C 100.460938 67.503906 100.726562 66.691406 101.296875 64.589844 C 102.28125 60.992188 102.230469 61.234375 101.992188 61.144531 C 101.851562 61.082031 101.761719 61.183594 101.675781 61.539062 Z M 101.675781 61.539062 "/>
<path style=" stroke:none;fill-rule:nonzero;fill:rgb(0%,0%,0%);fill-opacity:1;" d="M 2.667969 61.753906 C 2.65625 61.992188 3.375 64.109375 3.527344 64.261719 C 3.605469 64.335938 3.667969 64.4375 3.667969 64.488281 C 3.667969 64.539062 3.792969 64.855469 3.945312 65.199219 C 4.097656 65.527344 4.222656 65.855469 4.234375 65.933594 C 4.261719 66.125 4.878906 67.300781 5.121094 67.578125 C 5.246094 67.730469 5.222656 67.65625 5.070312 67.378906 C 4.917969 67.125 4.804688 66.84375 4.804688 66.769531 C 4.804688 66.691406 4.515625 66.035156 4.171875 65.3125 C 3.820312 64.589844 3.339844 63.476562 3.097656 62.816406 C 2.859375 62.160156 2.667969 61.675781 2.667969 61.753906 Z M 2.667969 61.753906 "/>
<path style=" stroke:none;fill-rule:nonzero;fill:rgb(0%,0%,0%);fill-opacity:1;" d="M 31.167969 62.488281 C 30.828125 62.765625 29.460938 63.882812 28.160156 64.96875 C 26.84375 66.058594 25.707031 66.984375 25.628906 67.035156 C 25.214844 67.3125 26.035156 67.390625 28.957031 67.351562 L 32.054688 67.328125 L 32.027344 65.109375 C 32.015625 63.894531 31.964844 62.691406 31.902344 62.4375 L 31.800781 61.980469 Z M 31.167969 62.488281 "/>
<path style=" stroke:none;fill-rule:nonzero;fill:rgb(0%,0%,0%);fill-opacity:1;" d="M 30.398438 62.476562 L 30.15625 62.765625 L 30.449219 62.527344 C 30.714844 62.296875 30.789062 62.195312 30.6875 62.195312 C 30.664062 62.195312 30.535156 62.324219 30.398438 62.476562 Z M 30.398438 62.476562 "/>
<path style=" stroke:none;fill-rule:nonzero;fill:rgb(0%,0%,0%);fill-opacity:1;" d="M 88.652344 62.652344 C 88.652344 62.792969 88.6875 62.828125 88.726562 62.726562 C 88.765625 62.640625 88.75 62.527344 88.714844 62.488281 C 88.675781 62.4375 88.636719 62.511719 88.652344 62.652344 Z M 88.652344 62.652344 "/>
<path style=" stroke:none;fill-rule:nonzero;fill:rgb(0%,0%,0%);fill-opacity:1;" d="M 27.578125 64.679688 C 26.238281 65.742188 25.085938 66.628906 25.023438 66.628906 C 24.972656 66.628906 24.898438 66.25 24.871094 65.769531 C 24.832031 64.957031 24.832031 64.957031 24.808594 66.007812 C 24.796875 66.808594 24.734375 67.148438 24.59375 67.261719 C 24.492188 67.351562 24.402344 67.480469 24.402344 67.554688 C 24.402344 67.628906 24.644531 67.464844 24.949219 67.1875 C 25.238281 66.894531 26.515625 65.808594 27.792969 64.742188 C 29.765625 63.097656 30.234375 62.679688 30.070312 62.714844 C 30.042969 62.714844 28.929688 63.601562 27.578125 64.679688 Z M 27.578125 64.679688 "/>
<path style=" stroke:none;fill-rule:nonzero;fill:rgb(0%,0%,0%);fill-opacity:1;" d="M 19.992188 63.527344 C 20.054688 63.578125 21.507812 63.652344 23.960938 63.730469 C 24.453125 63.742188 24.871094 63.703125 24.910156 63.640625 C 24.949219 63.578125 23.898438 63.515625 22.457031 63.488281 C 21.066406 63.476562 19.964844 63.488281 19.992188 63.527344 Z M 19.992188 63.527344 "/>
<path style=" stroke:none;fill-rule:nonzero;fill:rgb(0%,0%,0%);fill-opacity:1;" d="M 24.808594 64.222656 C 24.808594 64.402344 24.832031 64.464844 24.871094 64.375 C 24.898438 64.300781 24.898438 64.148438 24.871094 64.058594 C 24.832031 63.984375 24.808594 64.046875 24.808594 64.222656 Z M 24.808594 64.222656 "/>
<path style=" stroke:none;fill-rule:nonzero;fill:rgb(0%,0%,0%);fill-opacity:1;" d="M 87.5 66.464844 L 86.816406 68.785156 L 86.070312 68.785156 C 85.539062 68.785156 84.617188 69 82.785156 69.53125 C 81.378906 69.949219 80.089844 70.339844 79.914062 70.417969 C 79.371094 70.632812 79.875 70.570312 80.695312 70.316406 C 81.140625 70.175781 82.089844 69.886719 82.820312 69.671875 C 83.554688 69.453125 84.328125 69.214844 84.527344 69.136719 C 84.742188 69.074219 85.414062 68.972656 86.019531 68.921875 C 86.878906 68.847656 87.195312 68.757812 87.386719 68.566406 C 87.523438 68.429688 87.804688 67.769531 87.992188 67.113281 C 88.285156 66.109375 88.335938 65.769531 88.269531 65.035156 L 88.195312 64.160156 Z M 87.5 66.464844 "/>
<path style=" stroke:none;fill-rule:nonzero;fill:rgb(0%,0%,0%);fill-opacity:1;" d="M 72.707031 66.289062 C 72.707031 66.464844 72.957031 66.871094 73.289062 67.199219 C 73.753906 67.667969 73.832031 67.59375 73.375 67.097656 C 73.160156 66.882812 72.933594 66.578125 72.859375 66.441406 C 72.78125 66.300781 72.707031 66.238281 72.707031 66.289062 Z M 72.707031 66.289062 "/>
<path style=" stroke:none;fill-rule:nonzero;fill:rgb(0%,0%,0%);fill-opacity:1;" d="M 89.015625 67.074219 C 89.359375 67.503906 90.191406 68.023438 90.523438 68.023438 C 90.800781 68.011719 90.773438 67.984375 90.359375 67.832031 C 90.09375 67.746094 89.636719 67.480469 89.347656 67.25 C 89.066406 67.023438 88.917969 66.933594 89.015625 67.074219 Z M 89.015625 67.074219 "/>
<path style=" stroke:none;fill-rule:nonzero;fill:rgb(0%,0%,0%);fill-opacity:1;" d="M 45.570312 67.363281 C 46.078125 67.949219 46.59375 68.023438 50.769531 68.074219 C 52.929688 68.097656 54.976562 68.085938 55.320312 68.035156 C 55.671875 68 53.816406 67.933594 51.199219 67.898438 L 46.441406 67.832031 L 45.886719 67.464844 C 45.457031 67.1875 45.382812 67.160156 45.570312 67.363281 Z M 45.570312 67.363281 "/>
<path style=" stroke:none;fill-rule:nonzero;fill:rgb(0%,0%,0%);fill-opacity:1;" d="M 114.472656 67.605469 C 114.585938 67.628906 114.761719 67.628906 114.851562 67.605469 C 114.925781 67.566406 114.835938 67.542969 114.621094 67.542969 C 114.421875 67.542969 114.34375 67.566406 114.472656 67.605469 Z M 114.472656 67.605469 "/>
<path style=" stroke:none;fill-rule:nonzero;fill:rgb(0%,0%,0%);fill-opacity:1;" d="M 115.167969 67.605469 C 115.253906 67.644531 115.367188 67.628906 115.40625 67.59375 C 115.457031 67.554688 115.382812 67.515625 115.242188 67.53125 C 115.101562 67.53125 115.066406 67.566406 115.167969 67.605469 Z M 115.167969 67.605469 "/>
<path style=" stroke:none;fill-rule:nonzero;fill:rgb(0%,0%,0%);fill-opacity:1;" d="M 117.785156 67.769531 C 117.820312 67.832031 117.921875 67.898438 117.984375 67.898438 C 118.0625 67.898438 118.074219 67.832031 118.035156 67.769531 C 118 67.695312 117.898438 67.644531 117.835938 67.644531 C 117.757812 67.644531 117.746094 67.695312 117.785156 67.769531 Z M 117.785156 67.769531 "/>
<path style=" stroke:none;fill-rule:nonzero;fill:rgb(0%,0%,0%);fill-opacity:1;" d="M 74.578125 67.984375 C 74.664062 68.023438 74.78125 68.011719 74.816406 67.972656 C 74.867188 67.933594 74.792969 67.898438 74.652344 67.910156 C 74.515625 67.910156 74.476562 67.949219 74.578125 67.984375 Z M 74.578125 67.984375 "/>
<path style=" stroke:none;fill-rule:nonzero;fill:rgb(0%,0%,0%);fill-opacity:1;" d="M 78.75 68.113281 C 78.824219 68.136719 78.976562 68.136719 79.066406 68.113281 C 79.140625 68.074219 79.078125 68.046875 78.902344 68.046875 C 78.726562 68.046875 78.660156 68.074219 78.75 68.113281 Z M 78.75 68.113281 "/>
<path style=" stroke:none;fill-rule:nonzero;fill:rgb(0%,0%,0%);fill-opacity:1;" d="M 5.640625 69.859375 C 5.527344 70.191406 5.550781 70.265625 5.703125 70.011719 C 5.777344 69.886719 5.816406 69.746094 5.777344 69.722656 C 5.753906 69.683594 5.691406 69.746094 5.640625 69.859375 Z M 5.640625 69.859375 "/>
<path style=" stroke:none;fill-rule:nonzero;fill:rgb(0%,0%,0%);fill-opacity:1;" d="M 31.128906 70.175781 C 28.414062 71.847656 24.566406 72.683594 21.242188 72.34375 C 19.445312 72.164062 17.855469 71.746094 16.210938 71.050781 C 14.328125 70.253906 14.578125 70.152344 13.695312 72.164062 C 13 73.738281 12.949219 73.9375 13.113281 74.128906 C 13.378906 74.421875 15.742188 75.410156 17.132812 75.800781 C 19.117188 76.359375 19.890625 76.445312 22.761719 76.445312 C 25.695312 76.433594 26.730469 76.28125 29.019531 75.546875 C 31.789062 74.648438 35.089844 72.621094 37.113281 70.570312 L 37.984375 69.671875 L 34.960938 69.671875 L 31.925781 69.683594 Z M 31.128906 70.175781 "/>
<path style=" stroke:none;fill-rule:nonzero;fill:rgb(0%,0%,0%);fill-opacity:1;" d="M 5.246094 70.695312 C 5.195312 70.773438 5.183594 70.847656 5.222656 70.886719 C 5.246094 70.925781 5.3125 70.859375 5.347656 70.746094 C 5.4375 70.53125 5.359375 70.492188 5.246094 70.695312 Z M 5.246094 70.695312 "/>
<path style=" stroke:none;fill-rule:nonzero;fill:rgb(0%,0%,0%);fill-opacity:1;" d="M 32.671875 74.179688 C 32.445312 74.355469 32.445312 74.371094 32.722656 74.230469 C 32.875 74.15625 33.003906 74.066406 33.003906 74.039062 C 33.003906 73.9375 32.9375 73.964844 32.671875 74.179688 Z M 32.671875 74.179688 "/>
<path style=" stroke:none;fill-rule:nonzero;fill:rgb(0%,0%,0%);fill-opacity:1;" d="M 32.054688 74.484375 C 32.015625 74.558594 32.066406 74.574219 32.167969 74.535156 C 32.394531 74.445312 32.433594 74.355469 32.257812 74.355469 C 32.179688 74.355469 32.089844 74.40625 32.054688 74.484375 Z M 32.054688 74.484375 "/>
</g>
</svg>
